<?xml version="1.0" standalone="no"?>
<!DOCTYPE svg PUBLIC "-//W3C//DTD SVG 1.1//EN" "http://www.w3.org/Graphics/SVG/1.1/DTD/svg11.dtd" >
<svg xmlns="http://www.w3.org/2000/svg" xmlns:xlink="http://www.w3.org/1999/xlink" version="1.1">
<metadata>
Created by FontForge 20161003 at Tue Aug 22 14:42:21 2017
 By www-data
Typeface (c) (Tugcu Design Co). 2016. All Rights Reserved
</metadata>
<defs>
<font id="EquinoxRegular" horiz-adv-x="1630" >
  <font-face 
    font-family="EquinoxRegular"
    font-weight="400"
    font-stretch="normal"
    units-per-em="2048"
    panose-1="2 0 5 0 0 0 0 0 0 0"
    ascent="1638"
    descent="-410"
    x-height="1426"
    cap-height="1430"
    bbox="100 -240 1919.76 1733"
    underline-thickness="150"
    underline-position="-442"
    unicode-range="U+001D-F002"
  />
<missing-glyph horiz-adv-x="1024" 
 />
    <glyph glyph-name=".notdef" horiz-adv-x="1024" 
 />
    <glyph glyph-name=".null" horiz-adv-x="0" 
 />
    <glyph glyph-name=".null" horiz-adv-x="0" 
 />
    <glyph glyph-name="nonmarkingreturn" horiz-adv-x="508" 
 />
    <glyph glyph-name="space" unicode=" " horiz-adv-x="508" 
 />
    <glyph glyph-name="space" unicode="&#xa0;" horiz-adv-x="508" 
 />
    <glyph glyph-name="exclam" unicode="!" horiz-adv-x="310" 
d="M116 94q-16 -16 -16 -39t16 -39t39 -16t39 16t16 39t-16 39t-39 16t-39 -16zM116 1414q-16 -16 -16 -39v-1072q0 -23 16 -39t39 -16t39 16t16 39v1072q0 23 -16 39t-39 16t-39 -16z" />
    <glyph glyph-name="quotedbl" unicode="&#x22;" horiz-adv-x="475" 
d="M194 1226q16 16 16 39v110q0 23 -16 39t-39 16t-39 -16t-16 -39v-110q0 -23 16 -39t39 -16t39 16zM375 1375q0 23 -16 39t-39 16t-39 -16t-16 -39v-110q0 -23 16 -39t39 -16t39 16t16 39v110z" />
    <glyph glyph-name="numbersign" unicode="#" horiz-adv-x="1465" 
d="M464 523l72 385h438l-72 -385h-438zM816 65q-4 -22 9 -41t35 -23q5 -1 10 -1q46 0 54 45l69 368h235q22 0 39 16q16 16 16 39q0 22 -16 38q-17 17 -39 17h-214l72 385h224q23 0 39 16t16 39q0 22 -16 39q-16 16 -39 16h-203l65 347q4 22 -9 41t-35 23q-23 4 -41 -8
q-19 -13 -23 -36l-69 -367h-439l66 347q4 22 -9 41t-35 23q-23 4 -42 -8q-18 -13 -23 -36l-68 -367h-207q-23 0 -39 -16q-16 -17 -16 -39q0 -23 16 -39t39 -16h186l-72 -385h-197q-23 0 -39 -17q-16 -16 -16 -38q0 -23 16 -39t39 -16h176l-65 -348q-4 -22 9 -41
q12 -19 35 -23q5 -1 10 -1q46 0 54 45l69 368h438z" />
    <glyph glyph-name="dollar" unicode="$" horiz-adv-x="996" 
d="M595 1151q79 0 135 -56t56 -135q0 -22 16 -38q16 -17 39 -17t39 17q16 16 16 38q0 125 -88 213t-213 88h-36v114q0 23 -16 39t-39 16t-39 -16t-16 -39v-114h-49q-124 0 -212 -88t-88 -213q0 -124 88 -212t212 -88h195q79 0 135 -56t56 -134q0 -79 -56 -135t-135 -56h-195
q-78 0 -134 56t-56 135q0 22 -16 39q-16 16 -39 16t-39 -16q-16 -17 -16 -39q0 -125 88 -213t212 -88h49v-114q0 -23 16 -39t39 -16t39 16t16 39v114h36q125 0 213 88t88 213q0 124 -88 212t-213 88h-195q-78 0 -134 56t-56 134q0 79 56 135t134 56h195z" />
    <glyph glyph-name="percent" unicode="%" horiz-adv-x="1108" 
d="M229 789q-19 20 -19 47t19 47q20 19 47 19t47 -19q19 -20 19 -47t-19 -47q-20 -19 -47 -19t-47 19zM400 961q-51 51 -124 51t-124 -51q-52 -52 -52 -125t52 -124q51 -52 124 -52t124 52q52 51 52 124t-52 125zM785 575q-19 19 -19 47q0 27 19 46q19 20 47 20q27 0 46 -20
q20 -19 20 -46q0 -28 -20 -47q-19 -19 -46 -19q-28 0 -47 19zM956 746q-52 52 -124 52q-73 0 -125 -52q-51 -52 -51 -124q0 -73 51 -125q52 -51 125 -51q72 0 124 51q52 52 52 125q0 72 -52 124zM430 0q46 0 54 45l248 1320q4 22 -9 41t-35 23q-23 4 -41 -8q-19 -13 -23 -36
l-248 -1320q-4 -22 9 -41t35 -23q5 -1 10 -1z" />
    <glyph glyph-name="ampersand" unicode="&#x26;" horiz-adv-x="1218" 
d="M529 0q171 1 294 122q123 120 129 291h111q22 0 39 16q16 16 16 39q0 22 -16 38q-17 17 -39 17h-330q-23 0 -39 -17q-16 -16 -16 -38q0 -23 16 -39t39 -16h109q-6 -126 -97 -214q-92 -88 -219 -89q-131 1 -223 94q-93 93 -93 224t93 224t225 93h31q22 0 39 16
q16 16 16 39t-16 39q-17 16 -39 16h-55q-96 0 -164 68t-68 164t68 164t164 68h24q96 0 164 -68t68 -164q0 -23 16 -39t39 -16t39 16t16 39q0 141 -100 241q-100 101 -242 101h-24q-142 0 -242 -101q-100 -100 -100 -241q0 -185 156 -287q-99 -56 -158 -154
q-60 -101 -60 -218q0 -176 124 -301q124 -126 300 -127h5z" />
    <glyph glyph-name="quotesingle" unicode="'" horiz-adv-x="310" 
d="M194 1226q16 16 16 39v110q0 23 -16 39t-39 16t-39 -16t-16 -39v-110q0 -23 16 -39t39 -16t39 16z" />
    <glyph glyph-name="parenleft" unicode="(" horiz-adv-x="663" 
d="M508 1628q-23 0 -39 -16q-181 -181 -277 -417q-92 -227 -92 -474q0 -246 92 -474q96 -236 277 -417q16 -16 39 -16t39 16t16 39t-16 39q-336 336 -336 813t336 814q16 16 16 38q0 23 -16 39t-39 16z" />
    <glyph glyph-name="parenright" unicode=")" horiz-adv-x="663" 
d="M155 -184q23 0 39 16q181 181 277 417q92 228 92 474q0 247 -92 474q-96 236 -277 417q-16 16 -39 16t-39 -16t-16 -39q0 -22 16 -39q337 -336 337 -813q0 -476 -337 -813q-16 -16 -16 -39t16 -39t39 -16z" />
    <glyph glyph-name="asterisk" unicode="*" horiz-adv-x="442" 
d="M194 1198q0 -28 27 -28q28 0 28 28v48l40 -27q7 -5 15 -5q15 0 23 13q15 23 -8 38l-48 32l48 33q23 15 8 38t-38 8l-40 -27v48q0 28 -28 28q-27 0 -27 -28v-48l-41 27q-23 15 -38 -8t8 -38l48 -33l-48 -32q-23 -15 -8 -38q8 -13 23 -13q8 0 15 5l41 27v-48z" />
    <glyph glyph-name="plus" unicode="+" horiz-adv-x="778" 
d="M428 441q16 16 16 39v179h179q22 0 38 16q17 16 17 39t-17 39q-16 16 -38 16h-179v179q0 22 -16 38q-16 17 -39 17t-39 -17q-16 -16 -16 -38v-179h-179q-23 0 -39 -16t-16 -39t16 -39t39 -16h179v-179q0 -23 16 -39t39 -16t39 16z" />
    <glyph glyph-name="comma" unicode="," horiz-adv-x="310" 
d="M116 94q-16 -16 -16 -39v-110q0 -23 16 -39t39 -16t39 16t16 39v110q0 23 -16 39t-39 16t-39 -16z" />
    <glyph glyph-name="hyphen" unicode="-" horiz-adv-x="778" 
d="M661 754q-16 16 -38 16h-468q-23 0 -39 -16t-16 -39t16 -39t39 -16h468q22 0 38 16q17 16 17 39t-17 39z" />
    <glyph glyph-name="hyphen" unicode="&#xad;" horiz-adv-x="778" 
d="M661 754q-16 16 -38 16h-468q-23 0 -39 -16t-16 -39t16 -39t39 -16h468q22 0 38 16q17 16 17 39t-17 39z" />
    <glyph glyph-name="period" unicode="." horiz-adv-x="310" 
d="M210 55q0 23 -16 39t-39 16t-39 -16t-16 -39t16 -39t39 -16t39 16t16 39z" />
    <glyph glyph-name="slash" unicode="/" horiz-adv-x="564" 
d="M375 1421q-19 -13 -23 -36l-248 -1320q-4 -22 9 -41t35 -23q5 -1 10 -1q46 0 54 45l248 1320q4 22 -9 41t-35 23q-23 4 -41 -8z" />
    <glyph glyph-name="zero" unicode="0" horiz-adv-x="1099" 
d="M245 300q-35 71 -35 150v531q0 140 100 240q99 99 240 99q127 0 223 -84zM889 450q0 -141 -99 -240q-100 -100 -240 -100q-136 0 -234 93l531 941q42 -76 42 -163v-531zM100 450q0 -186 132 -318t318 -132q185 0 317 132t132 318v531q0 186 -132 317q-132 132 -317 132
q-186 0 -318 -132q-132 -131 -132 -317v-531z" />
    <glyph glyph-name="one" unicode="1" horiz-adv-x="448" 
d="M238 1320v-1265q0 -23 16 -39t39 -16q22 0 38 16q17 16 17 39v1320q0 23 -17 39q-16 16 -38 16h-138q-23 0 -39 -16t-16 -39t16 -39t39 -16h83z" />
    <glyph glyph-name="two" unicode="2" horiz-adv-x="1136" 
d="M477 300q121 120 182 182q11 11 40 41q99 98 146 151q104 115 129 228q32 150 -39 285q-53 101 -150 166q-96 64 -208 75q-118 12 -224 -39q-103 -49 -170 -145q-64 -93 -78 -204q-3 -23 11 -41t37 -21q22 -3 40 11t21 37q10 84 60 155q50 72 126 109q78 37 166 29
q84 -9 157 -58q74 -49 114 -125q53 -100 29 -211q-18 -84 -102 -178q-46 -50 -142 -147q-27 -26 -42 -41q-58 -60 -181 -182l-25 -25q-106 -105 -207 -207q-28 -29 -50 -51q-1 -1 -2 -3v0l-4 -4q-11 -16 -10 -36q2 -22 18 -36q15 -15 37 -15h825q23 0 39 16t16 39t-16 39
t-39 16h-693q80 81 163 164z" />
    <glyph glyph-name="three" unicode="3" horiz-adv-x="1080" 
d="M513 0h82q159 0 272 113t113 272q0 217 -187 330q86 52 136 138q51 89 51 192q0 159 -113 272t-272 113h-82q-7 0 -14 -2q-7 2 -14 2q-159 0 -272 -113t-113 -272q0 -23 16 -39t39 -16t39 16t16 39q0 114 81 195q80 80 194 80q7 0 14 2q7 -2 14 -2h82q114 0 194 -80
q81 -81 81 -195t-81 -194q-80 -81 -194 -81h-82q-23 0 -39 -16t-16 -39t16 -39t39 -16h82q114 0 194 -81q81 -80 81 -194t-81 -194q-80 -81 -194 -81h-82q-7 0 -14 -2q-7 2 -14 2q-114 0 -194 81q-81 80 -81 194q0 23 -16 39t-39 16t-39 -16t-16 -39q0 -159 113 -272
t272 -113q7 0 14 2q7 -2 14 -2z" />
    <glyph glyph-name="four" unicode="4" horiz-adv-x="1057" 
d="M941 534q-17 16 -39 16h-220v138q0 22 -16 38q-17 17 -39 17q-23 0 -39 -17q-16 -16 -16 -38v-138h-347l153 815q4 22 -8 41q-13 19 -36 23q-22 4 -41 -8q-19 -13 -23 -36l-165 -880q-5 -25 12 -45q16 -20 42 -20h413v-385q0 -23 16 -39t39 -16q22 0 39 16q16 16 16 39
v385h220q22 0 39 16q16 16 16 39t-16 39z" />
    <glyph glyph-name="five" unicode="5" horiz-adv-x="970" 
d="M749 704q-121 121 -291 121h-248v495h552q23 0 39 16t16 39t-16 39t-39 16h-607q-23 0 -39 -16t-16 -39v-605q0 -23 16 -39t39 -16h303q125 0 213 -89q89 -88 89 -213q0 -126 -89 -214q-88 -89 -213 -89h-303q-23 0 -39 -16t-16 -39t16 -39t39 -16h303q170 0 291 121
t121 292q0 170 -121 291z" />
    <glyph glyph-name="six" unicode="6" horiz-adv-x="1025" 
d="M299 626q88 89 214 89q125 0 213 -89q89 -88 89 -213q0 -126 -89 -214q-88 -89 -213 -89q-126 0 -214 89q-89 88 -89 214q0 125 89 213zM804 704q-121 121 -291 121q-180 0 -303 -132v325q0 125 89 213q88 89 214 89q125 0 213 -89q89 -88 89 -213q0 -23 16 -39t39 -16
t39 16t16 39q0 170 -121 291t-291 121q-171 0 -292 -121t-121 -291v-605q0 -171 121 -292t292 -121q170 0 291 121t121 292q0 170 -121 291z" />
    <glyph glyph-name="seven" unicode="7" horiz-adv-x="1059" 
d="M155 1430q-23 0 -39 -16t-16 -39t16 -39t39 -16h666l-416 -1248q-7 -21 3 -42q11 -20 32 -27q9 -3 18 -3q39 0 52 38l440 1320q9 26 -8 49q-16 23 -44 23h-743z" />
    <glyph glyph-name="eight" unicode="8" horiz-adv-x="1085" 
d="M496 660h94q119 0 202 -86q81 -85 76 -201q-4 -111 -84 -187t-190 -76h-102q-111 0 -190 76q-80 76 -85 187q-5 116 76 201q83 86 203 86zM293 1234q83 86 203 86h94q119 0 202 -86q81 -85 76 -201q-4 -111 -84 -187t-190 -76h-102q-111 0 -190 76q-80 76 -85 187
q-5 116 76 201zM492 0h102q155 0 266 107q112 107 118 261q7 163 -106 282q-36 37 -81 64q37 23 69 53q112 107 118 261q7 163 -106 282q-116 120 -282 120h-94q-167 0 -282 -120q-114 -119 -107 -282q7 -154 118 -261q32 -30 70 -53q-45 -27 -81 -64q-114 -119 -107 -282
q7 -154 118 -261q112 -107 267 -107z" />
    <glyph glyph-name="nine" unicode="9" horiz-adv-x="1025" 
d="M299 804q-89 89 -89 214t89 213q88 89 214 89q125 0 213 -89q89 -88 89 -213t-89 -214q-88 -89 -213 -89q-126 0 -214 89zM815 55q0 -23 16 -39t39 -16t39 16t16 39v963q0 170 -121 291t-291 121q-171 0 -292 -121t-121 -291q0 -171 121 -292t292 -121q179 0 302 132
v-682z" />
    <glyph glyph-name="colon" unicode=":" horiz-adv-x="310" 
d="M116 94q-16 -16 -16 -39t16 -39t39 -16t39 16t16 39t-16 39t-39 16t-39 -16zM116 754q-16 -16 -16 -39t16 -39t39 -16t39 16t16 39t-16 39t-39 16t-39 -16z" />
    <glyph glyph-name="semicolon" unicode=";" horiz-adv-x="310" 
d="M116 754q-16 -16 -16 -39t16 -39t39 -16t39 16t16 39t-16 39t-39 16t-39 -16zM116 94q-16 -16 -16 -39v-110q0 -23 16 -39t39 -16t39 16t16 39v110q0 23 -16 39t-39 16t-39 -16z" />
    <glyph glyph-name="semicolon" unicode="&#x37e;" horiz-adv-x="310" 
d="M116 754q-16 -16 -16 -39t16 -39t39 -16t39 16t16 39t-16 39t-39 16t-39 -16zM116 94q-16 -16 -16 -39v-110q0 -23 16 -39t39 -16t39 16t16 39v110q0 23 -16 39t-39 16t-39 -16z" />
    <glyph glyph-name="less" unicode="&#x3c;" horiz-adv-x="586" 
d="M433 1015q-23 1 -40 -14l-275 -248q-18 -16 -18 -40q0 -25 18 -41l275 -248q16 -14 37 -14q25 0 41 18q15 17 14 40t-18 38l-230 207l230 206q17 15 18 38t-14 40t-38 18z" />
    <glyph glyph-name="equal" unicode="=" horiz-adv-x="778" 
d="M155 880q-23 0 -39 -16t-16 -39t16 -39t39 -16h468q22 0 38 16q17 16 17 39t-17 39q-16 16 -38 16h-468zM155 660q-23 0 -39 -16t-16 -39t16 -39t39 -16h468q22 0 38 16q17 16 17 39t-17 39q-16 16 -38 16h-468z" />
    <glyph glyph-name="greater" unicode="&#x3e;" horiz-adv-x="586" 
d="M101 957q1 -23 18 -38l230 -206l-230 -207q-17 -15 -18 -38t14 -40q17 -18 41 -18q21 0 37 14l275 248q18 16 18 41q0 24 -18 40l-275 248q-17 15 -40 14t-38 -18t-14 -40z" />
    <glyph glyph-name="question" unicode="?" horiz-adv-x="1025" 
d="M221 1309q-121 -121 -121 -291q0 -23 16 -39t39 -16t39 16t16 39q0 125 89 213q88 89 214 89q125 0 213 -89q89 -88 89 -213t-89 -214q-88 -89 -213 -89q-23 0 -39 -16t-16 -39v-357q0 -23 16 -39t39 -16q22 0 38 16q17 16 17 39v306q152 20 254 136q103 117 103 273
q0 170 -121 291t-291 121q-171 0 -292 -121zM474 94q-16 -16 -16 -39t16 -39t39 -16q22 0 38 16q17 16 17 39t-17 39q-16 16 -38 16q-23 0 -39 -16z" />
    <glyph glyph-name="at" unicode="@" horiz-adv-x="1634" 
d="M644 543q-72 73 -72 175q0 103 72 175q73 73 175 73q103 0 175 -73q73 -72 73 -175q0 -102 -73 -175q-72 -72 -175 -72q-102 0 -175 72zM314 1224q-210 -209 -210 -505q-4 -127 47 -256q8 -23 19 -46q39 -84 100 -156q3 -4 7 -9v0q16 -19 32 -35q105 -109 241 -164
q131 -53 271 -53q102 0 195 29q21 7 32 28q10 20 4 41q-7 22 -28 33q-20 10 -42 3q-190 -60 -390 21q-111 45 -199 134q-2 2 -2 1q-4 5 -10 11v1h-1l-4 5q-46 50 -81 108l-4 8l-1 1q-97 175 -70 374q27 203 171 348q177 177 428 177t428 -177q113 -113 155 -265
q41 -149 7 -299q-1 -2 -1 -4q-1 -2 -2 -6q-33 -134 -122 -241l-176 176q69 95 69 211q0 148 -105 253t-253 105t-252 -105q-105 -105 -105 -253t105 -252q104 -105 252 -105q117 0 211 69l217 -217q16 -17 39 -17t39 17q22 21 42 45v1q156 185 167 427q0 -2 0 5v11v16
q0 296 -209 506q-209 209 -506 209q-296 0 -505 -209z" />
    <glyph glyph-name="A" unicode="A" horiz-adv-x="1477" 
d="M1365 77l-578 1320q-14 33 -50 33t-51 -33l-577 -1320q-9 -21 -1 -42t29 -30q11 -5 22 -5q36 0 51 33l527 1205l493 -1128h-631q-23 0 -39 -16t-16 -39t16 -39t39 -16h715q30 0 46 25q17 25 5 52z" />
    <glyph glyph-name="B" unicode="B" horiz-adv-x="1273" 
d="M210 660h578q113 0 194 -81q81 -80 81 -194t-81 -194q-81 -81 -194 -81h-578v550zM210 1320h468q113 0 194 -80q81 -81 81 -195t-81 -194q-81 -81 -194 -81h-468v550zM788 0q159 0 272 113t113 272q0 123 -71 223q-70 97 -182 138q143 116 143 299q0 159 -113 272
t-272 113h-523q-23 0 -39 -16t-16 -39v-1320q0 -23 16 -39t39 -16h633z" />
    <glyph glyph-name="C" unicode="C" horiz-adv-x="1437" 
d="M1321 209q16 17 16 39q0 23 -16 39t-39 16t-39 -16q-177 -177 -428 -177t-428 177t-177 428t177 428t428 177t428 -177q16 -16 39 -16t39 16t16 39t-16 39q-210 209 -506 209t-506 -209q-209 -210 -209 -506t209 -506q210 -209 506 -209t506 209z" />
    <glyph glyph-name="D" unicode="D" horiz-adv-x="1300" 
d="M991 1221q-210 209 -506 209h-330q-23 0 -39 -16t-16 -39t16 -39t39 -16h330q250 0 428 -177q177 -178 177 -428t-177 -428q-178 -177 -428 -177h-330q-23 0 -39 -16t-16 -39t16 -39t39 -16h330q296 0 506 209q209 210 209 506t-209 506z" />
    <glyph glyph-name="E" unicode="E" horiz-adv-x="1218" 
d="M1102 94q-17 16 -39 16h-908q-23 0 -39 -16t-16 -39t16 -39t39 -16h908q22 0 39 16q16 16 16 39t-16 39zM155 1430q-23 0 -39 -16t-16 -39t16 -39t39 -16h908q22 0 39 16q16 16 16 39t-16 39q-17 16 -39 16h-908zM155 770q-23 0 -39 -16t-16 -39t16 -39t39 -16h908
q22 0 39 16q16 16 16 39t-16 39q-17 16 -39 16h-908z" />
    <glyph glyph-name="F" unicode="F" horiz-adv-x="1218" 
d="M194 16q16 16 16 39v605h633q22 0 38 16q17 16 17 39t-17 39q-16 16 -38 16h-633v550h853q22 0 39 16q16 16 16 39t-16 39q-17 16 -39 16h-908q-23 0 -39 -16t-16 -39v-1320q0 -23 16 -39t39 -16t39 16z" />
    <glyph glyph-name="G" unicode="G" horiz-adv-x="1437" 
d="M1321 209q16 17 16 39v467q0 23 -16 39t-39 16h-494q-23 0 -39 -16t-16 -39t16 -39t39 -16h439v-388q-174 -162 -412 -162q-251 0 -428 177t-177 428t177 428t428 177t428 -177q16 -16 39 -16t39 16t16 39t-16 39q-210 209 -506 209t-506 -209q-209 -210 -209 -506
t209 -506q210 -209 506 -209t506 209z" />
    <glyph glyph-name="H" unicode="H" horiz-adv-x="1273" 
d="M194 16q16 16 16 39v605h853v-605q0 -23 16 -39t39 -16q22 0 39 16q16 16 16 39v1320q0 23 -16 39q-17 16 -39 16q-23 0 -39 -16t-16 -39v-605h-853v605q0 23 -16 39t-39 16t-39 -16t-16 -39v-1320q0 -23 16 -39t39 -16t39 16z" />
    <glyph glyph-name="I" unicode="I" horiz-adv-x="310" 
d="M194 16q16 16 16 39v1320q0 23 -16 39t-39 16t-39 -16t-16 -39v-1320q0 -23 16 -39t39 -16t39 16z" />
    <glyph glyph-name="J" unicode="J" horiz-adv-x="778" 
d="M524 153q154 153 154 370v852q0 23 -17 39q-16 16 -38 16q-23 0 -39 -16t-16 -39v-852q0 -171 -121 -292t-292 -121q-23 0 -39 -16t-16 -39t16 -39t39 -16q216 0 369 153z" />
    <glyph glyph-name="K" unicode="K" horiz-adv-x="1191" 
d="M194 16q16 16 16 39v498l158 143l627 -678q16 -18 40 -18q22 0 37 15q17 15 18 38t-14 39l-626 678l622 564q17 16 18 38q1 23 -14 40t-38 18t-40 -14l-788 -714v673q0 23 -16 39t-39 16t-39 -16t-16 -39v-1320q0 -23 16 -39t39 -16t39 16z" />
    <glyph glyph-name="L" unicode="L" horiz-adv-x="1245" 
d="M1090 0q23 0 39 16t16 39t-16 39t-39 16h-880v1265q0 23 -16 39t-39 16t-39 -16t-16 -39v-1320q0 -23 16 -39t39 -16h935z" />
    <glyph glyph-name="M" unicode="M" horiz-adv-x="1520" 
d="M194 16q16 16 16 39v1148l505 -712q17 -23 45 -23t45 23l505 712v-1148q0 -23 16 -39t39 -16t39 16t16 39v1320q0 40 -38 53q-38 12 -62 -21l-560 -789l-560 789q-23 33 -62 21q-38 -13 -38 -53v-1320q0 -23 16 -39t39 -16t39 16z" />
    <glyph glyph-name="N" unicode="N" horiz-adv-x="1328" 
d="M194 16q16 16 16 39v1159l919 -1193q17 -21 44 -21q9 0 17 3q38 13 38 52v1320q0 23 -16 39q-17 16 -39 16q-23 0 -39 -16t-16 -39v-1159l-919 1193q-24 31 -62 18q-37 -12 -37 -52v-1320q0 -23 16 -39t39 -16t39 16z" />
    <glyph glyph-name="O" unicode="O" 
d="M387 287q-177 178 -177 428t177 428q178 177 428 177t428 -177q177 -178 177 -428t-177 -428q-178 -177 -428 -177t-428 177zM309 1221q-209 -210 -209 -506t209 -506q210 -209 506 -209t506 209q209 210 209 506t-209 506q-210 209 -506 209t-506 -209z" />
    <glyph glyph-name="P" unicode="P" horiz-adv-x="1218" 
d="M666 1320q141 0 241 -100q101 -100 101 -242q0 -141 -101 -242q-100 -100 -241 -100h-511q-23 0 -39 -16t-16 -39v-526q0 -23 16 -39t39 -16t39 16t16 39v471h456q187 0 319 133q133 132 133 319t-133 320q-132 132 -319 132h-511q-23 0 -39 -16t-16 -39t16 -39t39 -16
h511z" />
    <glyph glyph-name="Q" unicode="Q" 
d="M870 246q0 23 -16 39t-39 16t-39 -16t-16 -39v-135q-232 21 -390 194q-160 173 -160 409q0 250 177 427q178 178 428 178t428 -178q177 -177 177 -427q0 -236 -159 -409t-391 -194v135zM309 1219q-209 -209 -209 -505q0 -297 209 -506q188 -187 451 -207v-140
q0 -23 16 -39t39 -16t39 16t16 39v140q263 20 451 207q209 209 209 506q0 296 -209 505q-210 210 -506 210t-506 -210z" />
    <glyph glyph-name="R" unicode="R" horiz-adv-x="1231" 
d="M194 16q16 16 16 39v471h356l469 -508q16 -18 40 -18q22 0 38 15t17 38t-14 39l-403 437q170 19 286 147q116 129 116 302q0 187 -133 320q-132 132 -319 132h-508q-23 0 -39 -16t-16 -39t16 -39t39 -16h508q141 0 242 -100q100 -100 100 -242q0 -141 -100 -242
q-101 -100 -242 -100h-508q-23 0 -39 -16t-16 -39v-526q0 -23 16 -39t39 -16t39 16z" />
    <glyph glyph-name="S" unicode="S" horiz-adv-x="1232" 
d="M485 110q-114 0 -194 81q-81 80 -81 194q0 23 -16 39t-39 16t-39 -16t-16 -39q0 -159 113 -272t272 -113h262q160 0 272 113q113 113 113 272t-113 272q-112 113 -272 113h-262q-114 0 -194 81q-81 80 -81 194t81 195q80 80 194 80h262q114 0 195 -80q80 -81 80 -195
q0 -23 16 -39q17 -16 39 -16q23 0 39 16t16 39q0 159 -113 272q-112 113 -272 113h-262q-159 0 -272 -113t-113 -272t113 -272t272 -113h262q114 0 195 -81q80 -80 80 -194t-80 -194q-81 -81 -195 -81h-262z" />
    <glyph glyph-name="T" unicode="T" horiz-adv-x="1328" 
d="M609 1320v-1265q0 -23 16 -39t39 -16t39 16t16 39v1265h454q22 0 39 16q16 16 16 39t-16 39q-17 16 -39 16h-1018q-23 0 -39 -16t-16 -39t16 -39t39 -16h454z" />
    <glyph glyph-name="U" unicode="U" horiz-adv-x="1273" 
d="M1173 1375q0 23 -16 39q-17 16 -39 16q-23 0 -39 -16t-16 -39v-839q0 -176 -125 -301t-302 -125q-176 0 -301 125t-125 301v839q0 23 -16 39t-39 16t-39 -16t-16 -39v-839q0 -221 157 -379q158 -157 379 -157q222 0 379 157q158 158 158 379v839z" />
    <glyph glyph-name="V" unicode="V" horiz-adv-x="1474" 
d="M686 33q15 -33 51 -33t50 33l578 1320q9 21 1 42q-9 21 -30 31q-21 9 -42 0q-21 -8 -30 -29l-527 -1205l-527 1205q-10 21 -31 29q-21 9 -42 0q-21 -10 -29 -31t1 -42z" />
    <glyph glyph-name="W" unicode="W" horiz-adv-x="2024" 
d="M686 33q15 -33 51 -33v0q36 0 50 33l218 502l232 -503q15 -32 50 -32v0q36 0 50 33l578 1320q9 21 1 42q-9 21 -30 31q-20 9 -42 0q-21 -8 -30 -29l-528 -1208l-231 503q-15 31 -50 32h-2q-36 -1 -50 -34l-216 -497l-527 1204q-10 21 -31 29q-21 9 -42 0q-21 -10 -29 -31
t1 -42z" />
    <glyph glyph-name="X" unicode="X" horiz-adv-x="1332" 
d="M735 715l483 627q14 18 11 40q-3 23 -21 37t-40 11q-23 -3 -37 -21l-465 -604l-465 604q-14 18 -37 21q-22 3 -41 -11q-18 -14 -20 -37q-3 -22 10 -40l483 -627l-483 -626q-13 -18 -10 -41q2 -23 20 -37q15 -11 34 -11q27 0 44 21l465 604l465 -604q17 -21 44 -21
q18 0 33 11q18 14 21 37t-11 41z" />
    <glyph glyph-name="Y" unicode="Y" horiz-adv-x="1363" 
d="M627 534v-479q0 -23 16 -39t39 -16q22 0 39 16q16 16 16 39v479l514 812q12 19 7 41t-24 35q-20 12 -42 7t-34 -24l-476 -752l-476 752q-13 19 -35 24t-41 -7q-20 -13 -25 -35t8 -41z" />
    <glyph glyph-name="Z" unicode="Z" horiz-adv-x="1292" 
d="M1127 0q23 0 39 16t16 39t-16 39t-39 16h-854l899 1233q20 27 4 57q-15 30 -49 30h-962q-23 0 -39 -16t-16 -39t16 -39t39 -16h854l-899 -1233q-20 -27 -4 -57q15 -30 49 -30h962z" />
    <glyph glyph-name="bracketleft" unicode="[" horiz-adv-x="558" 
d="M403 1575q22 0 38 16q17 16 17 39t-17 39q-16 16 -38 16h-248q-23 0 -39 -16t-16 -39v-1815q0 -23 16 -39t39 -16h248q22 0 38 16q17 16 17 39t-17 39q-16 16 -38 16h-193v1705h193z" />
    <glyph glyph-name="bracketright" unicode="]" horiz-adv-x="558" 
d="M458 1630q0 23 -17 39q-16 16 -38 16h-248q-23 0 -39 -16t-16 -39t16 -39t39 -16h193v-1705h-193q-23 0 -39 -16t-16 -39t16 -39t39 -16h248q22 0 38 16q17 16 17 39v1815z" />
    <glyph glyph-name="underscore" unicode="_" horiz-adv-x="778" 
d="M661 94q-16 16 -38 16h-468q-23 0 -39 -16t-16 -39t16 -39t39 -16h468q22 0 38 16q17 16 17 39t-17 39z" />
    <glyph glyph-name="grave" unicode="`" horiz-adv-x="310" 
d="M194 1226q16 16 16 39v110q0 23 -16 39t-39 16t-39 -16t-16 -39v-110q0 -23 16 -39t39 -16t39 16z" />
    <glyph glyph-name="a" unicode="a" horiz-adv-x="1474" 
d="M436 550l301 688l301 -688h-602zM787 1397q-14 33 -50 33t-51 -33l-577 -1320q-9 -21 -1 -42t29 -30q11 -5 22 -5q36 0 51 33l179 410q9 -3 18 -3h660q9 0 18 3l179 -410q9 -21 30 -29t42 1t30 30q8 21 -1 42z" />
    <glyph glyph-name="b" unicode="b" horiz-adv-x="1273" 
d="M210 660h578q113 0 194 -81q81 -80 81 -194t-81 -194q-81 -81 -194 -81h-578v550zM210 1320h468q113 0 194 -80q81 -81 81 -195t-81 -194q-81 -81 -194 -81h-468v550zM788 0q159 0 272 113t113 272q0 123 -71 223q-70 97 -182 138q143 116 143 299q0 159 -113 272
t-272 113h-523q-23 0 -39 -16t-16 -39v-1320q0 -23 16 -39t39 -16h633z" />
    <glyph glyph-name="c" unicode="c" horiz-adv-x="1437" 
d="M1321 209q16 17 16 39q0 23 -16 39t-39 16t-39 -16q-177 -177 -428 -177t-428 177t-177 428t177 428t428 177t428 -177q16 -16 39 -16t39 16t16 39t-16 39q-210 209 -506 209t-506 -209q-209 -210 -209 -506t209 -506q210 -209 506 -209t506 209z" />
    <glyph glyph-name="d" unicode="d" horiz-adv-x="1300" 
d="M210 1320h275q250 0 428 -177q177 -178 177 -428t-177 -428q-178 -177 -428 -177h-275v1210zM485 0q296 0 506 209q209 210 209 506t-209 506q-210 209 -506 209h-330q-23 0 -39 -16t-16 -39v-1320q0 -23 16 -39t39 -16h330z" />
    <glyph glyph-name="e" unicode="e" horiz-adv-x="1218" 
d="M1063 0q22 0 39 16q16 16 16 39t-16 39q-17 16 -39 16h-853v550h633q22 0 38 16q17 16 17 39t-17 39q-16 16 -38 16h-633v550h853q22 0 39 16q16 16 16 39t-16 39q-17 16 -39 16h-908q-23 0 -39 -16t-16 -39v-1320q0 -23 16 -39t39 -16h908z" />
    <glyph glyph-name="f" unicode="f" horiz-adv-x="1218" 
d="M194 16q16 16 16 39v605h633q22 0 38 16q17 16 17 39t-17 39q-16 16 -38 16h-633v550h853q22 0 39 16q16 16 16 39t-16 39q-17 16 -39 16h-908q-23 0 -39 -16t-16 -39v-1320q0 -23 16 -39t39 -16t39 16z" />
    <glyph glyph-name="g" unicode="g" horiz-adv-x="1437" 
d="M1321 209q16 17 16 39v467q0 23 -16 39t-39 16h-494q-23 0 -39 -16t-16 -39t16 -39t39 -16h439v-388q-174 -162 -412 -162q-251 0 -428 177t-177 428t177 428t428 177t428 -177q16 -16 39 -16t39 16t16 39t-16 39q-210 209 -506 209t-506 -209q-209 -210 -209 -506
t209 -506q210 -209 506 -209t506 209z" />
    <glyph glyph-name="h" unicode="h" horiz-adv-x="1273" 
d="M194 16q16 16 16 39v605h853v-605q0 -23 16 -39t39 -16q22 0 39 16q16 16 16 39v1320q0 23 -16 39q-17 16 -39 16q-23 0 -39 -16t-16 -39v-605h-853v605q0 23 -16 39t-39 16t-39 -16t-16 -39v-1320q0 -23 16 -39t39 -16t39 16z" />
    <glyph glyph-name="i" unicode="i" horiz-adv-x="310" 
d="M194 16q16 16 16 39v1320q0 23 -16 39t-39 16t-39 -16t-16 -39v-1320q0 -23 16 -39t39 -16t39 16z" />
    <glyph glyph-name="j" unicode="j" horiz-adv-x="778" 
d="M524 153q154 153 154 370v852q0 23 -17 39q-16 16 -38 16q-23 0 -39 -16t-16 -39v-852q0 -171 -121 -292t-292 -121q-23 0 -39 -16t-16 -39t16 -39t39 -16q216 0 369 153z" />
    <glyph glyph-name="k" unicode="k" horiz-adv-x="1191" 
d="M194 16q16 16 16 39v498l158 143l627 -678q16 -18 40 -18q22 0 37 15q17 15 18 38t-14 39l-626 678l622 564q17 16 18 38q1 23 -14 40t-38 18t-40 -14l-788 -714v673q0 23 -16 39t-39 16t-39 -16t-16 -39v-1320q0 -23 16 -39t39 -16t39 16z" />
    <glyph glyph-name="l" unicode="l" horiz-adv-x="1245" 
d="M1090 0q23 0 39 16t16 39t-16 39t-39 16h-880v1265q0 23 -16 39t-39 16t-39 -16t-16 -39v-1320q0 -23 16 -39t39 -16h935z" />
    <glyph glyph-name="m" unicode="m" horiz-adv-x="1520" 
d="M194 16q16 16 16 39v1148l505 -712q17 -23 45 -23t45 23l505 712v-1148q0 -23 16 -39t39 -16t39 16t16 39v1320q0 40 -38 53q-38 12 -62 -21l-560 -789l-560 789q-23 33 -62 21q-38 -13 -38 -53v-1320q0 -23 16 -39t39 -16t39 16z" />
    <glyph glyph-name="n" unicode="n" horiz-adv-x="1328" 
d="M194 16q16 16 16 39v1159l919 -1193q17 -21 44 -21q9 0 17 3q38 13 38 52v1320q0 23 -16 39q-17 16 -39 16q-23 0 -39 -16t-16 -39v-1159l-919 1193q-24 31 -62 18q-37 -12 -37 -52v-1320q0 -23 16 -39t39 -16t39 16z" />
    <glyph glyph-name="o" unicode="o" 
d="M387 287q-177 178 -177 428t177 428q178 177 428 177t428 -177q177 -178 177 -428t-177 -428q-178 -177 -428 -177t-428 177zM309 1221q-209 -210 -209 -506t209 -506q210 -209 506 -209t506 209q209 210 209 506t-209 506q-210 209 -506 209t-506 -209z" />
    <glyph glyph-name="p" unicode="p" horiz-adv-x="1218" 
d="M210 1320h456q141 0 241 -100q101 -100 101 -242q0 -141 -101 -242q-100 -100 -241 -100h-456v684zM210 526h456q187 0 319 133q133 132 133 319t-133 320q-132 132 -319 132h-511q-23 0 -39 -16t-16 -39v-1320q0 -23 16 -39t39 -16t39 16t16 39v471z" />
    <glyph glyph-name="q" unicode="q" 
d="M870 246q0 23 -16 39t-39 16t-39 -16t-16 -39v-135q-232 21 -390 194q-160 173 -160 409q0 250 177 427q178 178 428 178t428 -178q177 -177 177 -427q0 -236 -159 -409t-391 -194v135zM309 1219q-209 -209 -209 -505q0 -297 209 -506q188 -187 451 -207v-140
q0 -23 16 -39t39 -16t39 16t16 39v140q263 20 451 207q209 209 209 506q0 296 -209 505q-210 210 -506 210t-506 -210z" />
    <glyph glyph-name="r" unicode="r" horiz-adv-x="1231" 
d="M210 1320h453q141 0 242 -100q100 -100 100 -242q0 -141 -100 -242q-101 -100 -242 -100h-453v684zM194 16q16 16 16 39v471h356l469 -508q16 -18 40 -18q22 0 38 15t17 38t-14 39l-403 437q170 19 286 147q116 129 116 302q0 187 -133 320q-132 132 -319 132h-508
q-23 0 -39 -16t-16 -39v-1320q0 -23 16 -39t39 -16t39 16z" />
    <glyph glyph-name="s" unicode="s" horiz-adv-x="1232" 
d="M485 110q-114 0 -194 81q-81 80 -81 194q0 23 -16 39t-39 16t-39 -16t-16 -39q0 -159 113 -272t272 -113h262q160 0 272 113q113 113 113 272t-113 272q-112 113 -272 113h-262q-114 0 -194 81q-81 80 -81 194t81 195q80 80 194 80h262q114 0 195 -80q80 -81 80 -195
q0 -23 16 -39q17 -16 39 -16q23 0 39 16t16 39q0 159 -113 272q-112 113 -272 113h-262q-159 0 -272 -113t-113 -272t113 -272t272 -113h262q114 0 195 -81q80 -80 80 -194t-80 -194q-81 -81 -195 -81h-262z" />
    <glyph glyph-name="t" unicode="t" horiz-adv-x="1328" 
d="M609 1320v-1265q0 -23 16 -39t39 -16t39 16t16 39v1265h454q22 0 39 16q16 16 16 39t-16 39q-17 16 -39 16h-1018q-23 0 -39 -16t-16 -39t16 -39t39 -16h454z" />
    <glyph glyph-name="u" unicode="u" horiz-adv-x="1273" 
d="M1173 1375q0 23 -16 39q-17 16 -39 16q-23 0 -39 -16t-16 -39v-839q0 -176 -125 -301t-302 -125q-176 0 -301 125t-125 301v839q0 23 -16 39t-39 16t-39 -16t-16 -39v-839q0 -221 157 -379q158 -157 379 -157q222 0 379 157q158 158 158 379v839z" />
    <glyph glyph-name="v" unicode="v" horiz-adv-x="1474" 
d="M686 33q15 -33 51 -33t50 33l578 1320q9 21 1 42q-9 21 -30 31q-21 9 -42 0q-21 -8 -30 -29l-527 -1205l-527 1205q-10 21 -31 29q-21 9 -42 0q-21 -10 -29 -31t1 -42z" />
    <glyph glyph-name="w" unicode="w" horiz-adv-x="2024" 
d="M686 33q15 -33 51 -33v0q36 0 50 33l218 502l232 -503q15 -32 50 -32v0q36 0 50 33l578 1320q9 21 1 42q-9 21 -30 31q-20 9 -42 0q-21 -8 -30 -29l-528 -1208l-231 503q-15 31 -50 32h-2q-36 -1 -50 -34l-216 -497l-527 1204q-10 21 -31 29q-21 9 -42 0q-21 -10 -29 -31
t1 -42z" />
    <glyph glyph-name="x" unicode="x" horiz-adv-x="1332" 
d="M735 715l483 627q14 18 11 40q-3 23 -21 37t-40 11q-23 -3 -37 -21l-465 -604l-465 604q-14 18 -37 21q-22 3 -41 -11q-18 -14 -20 -37q-3 -22 10 -40l483 -627l-483 -626q-13 -18 -10 -41q2 -23 20 -37q15 -11 34 -11q27 0 44 21l465 604l465 -604q17 -21 44 -21
q18 0 33 11q18 14 21 37t-11 41z" />
    <glyph glyph-name="y" unicode="y" horiz-adv-x="1363" 
d="M627 534v-479q0 -23 16 -39t39 -16q22 0 39 16q16 16 16 39v479l514 812q12 19 7 41t-24 35q-20 12 -42 7t-34 -24l-476 -752l-476 752q-13 19 -35 24t-41 -7q-20 -13 -25 -35t8 -41z" />
    <glyph glyph-name="z" unicode="z" horiz-adv-x="1292" 
d="M1127 0q23 0 39 16t16 39t-16 39t-39 16h-854l899 1233q20 27 4 57q-15 30 -49 30h-962q-23 0 -39 -16t-16 -39t16 -39t39 -16h854l-899 -1233q-20 -27 -4 -57q15 -30 49 -30h962z" />
    <glyph glyph-name="copyright" unicode="&#xa9;" horiz-adv-x="1080" 
d="M307 487q-97 97 -97 233q0 137 97 233q97 97 233 97q137 0 233 -97q97 -96 97 -233q0 -136 -97 -233q-96 -97 -233 -97q-136 0 -233 97zM229 1031q-129 -129 -129 -311t129 -311t311 -129t311 129t129 311t-129 311t-311 129t-311 -129zM669 785q23 0 39 16t16 39t-16 39
q-66 65 -159 65t-159 -65q-65 -66 -65 -159t65 -159q66 -65 159 -65t159 65q16 16 16 39t-16 39t-39 16t-39 -16q-33 -33 -81 -33q-47 0 -81 33q-33 34 -33 81t33 81q34 33 81 33q48 0 81 -33q16 -16 39 -16z" />
    <glyph glyph-name="acute" unicode="&#xb4;" horiz-adv-x="310" 
d="M194 1226q16 16 16 39v110q0 23 -16 39t-39 16t-39 -16t-16 -39v-110q0 -23 16 -39t39 -16t39 16z" />
    <glyph glyph-name="Agrave" unicode="&#xc0;" horiz-adv-x="1474" 
d="M436 550l301 688l301 -688h-602zM787 1397q-14 33 -50 33t-51 -33l-577 -1320q-9 -21 -1 -42t29 -30q11 -5 22 -5q36 0 51 33l179 410q9 -3 18 -3h660q9 0 18 3l179 -410q9 -21 30 -29t42 1t30 30q8 21 -1 42zM654 1673q0 -23 16 -39l78 -78q16 -16 39 -16t39 16
q16 17 16 39q0 23 -16 39l-78 78q-16 16 -39 16t-39 -16t-16 -39z" />
    <glyph glyph-name="Aacute" unicode="&#xc1;" horiz-adv-x="1474" 
d="M436 550l301 688l301 -688h-602zM787 1397q-14 33 -50 33t-51 -33l-577 -1320q-9 -21 -1 -42t29 -30q11 -5 22 -5q36 0 51 33l179 410q9 -3 18 -3h660q9 0 18 3l179 -410q9 -21 30 -29t42 1t30 30q8 21 -1 42zM670 1634q-16 -16 -16 -39q0 -22 16 -39q16 -16 39 -16
t39 16l78 78q16 16 16 39t-16 39t-39 16t-39 -16z" />
    <glyph glyph-name="Acircumflex" unicode="&#xc2;" horiz-adv-x="1474" 
d="M436 550l301 688l301 -688h-602zM787 1397q-14 33 -50 33t-51 -33l-577 -1320q-9 -21 -1 -42t29 -30q11 -5 22 -5q36 0 51 33l179 410q9 -3 18 -3h660q9 0 18 3l179 -410q9 -21 30 -29t42 1t30 30q8 21 -1 42zM769 1714q-17 15 -39 14q-21 0 -37 -16l-78 -78
q-16 -16 -16 -39q0 -22 16 -39q16 -16 39 -16t39 16l41 42l49 -44q15 -14 36 -14q25 0 41 19q15 17 14 39q-1 23 -18 38z" />
    <glyph glyph-name="Atilde" unicode="&#xc3;" horiz-adv-x="1474" 
d="M436 550l301 688l301 -688h-602zM1366 35q8 21 -1 42l-578 1320q-14 33 -50 33t-51 -33l-577 -1320q-9 -21 -1 -42t29 -30q11 -5 22 -5q36 0 51 33l179 410q9 -3 18 -3h660q9 0 18 3l179 -410q9 -21 30 -29t42 1t30 30zM825 1666q-16 -9 -29 -7q-8 1 -29 18q-5 5 -8 7
q-65 52 -132 29q-32 -11 -65 -43q-17 -15 -18 -38q0 -23 15 -39q16 -17 39 -18q22 0 39 15q16 16 26 19q9 3 27 -11q2 -1 7 -5q44 -37 83 -43q10 -1 20 -1q41 0 80 22q25 14 60 48q16 16 16 38q1 23 -15 39q-16 17 -39 17q-23 1 -39 -15q-25 -24 -38 -32z" />
    <glyph glyph-name="Adieresis" unicode="&#xc4;" horiz-adv-x="1474" 
d="M808 1584q16 -16 39 -16t39 16t16 39t-16 39t-39 16t-39 -16t-16 -39t16 -39zM588 1662q-16 -16 -16 -39t16 -39t39 -16t39 16t16 39t-16 39t-39 16t-39 -16zM436 550l301 688l301 -688h-602zM787 1397q-14 33 -50 33t-51 -33l-577 -1320q-9 -21 -1 -42t29 -30
q11 -5 22 -5q36 0 51 33l179 410q9 -3 18 -3h660q9 0 18 3l179 -410q9 -21 30 -29t42 1t30 30q8 21 -1 42z" />
    <glyph glyph-name="Aring" unicode="&#xc5;" horiz-adv-x="1474" 
d="M436 550l301 688l301 -688h-602zM766 1542q12 -12 12 -29t-12 -29t-29 -12t-29 12q-13 12 -13 29t13 29q12 12 29 12t29 -12zM787 1397q0 1 -1 2q75 33 75 114q0 51 -37 87q-36 37 -87 37t-88 -37q-36 -36 -36 -87q0 -81 74 -114l-1 -2l-577 -1320q-9 -21 -1 -42t29 -30
q11 -5 22 -5q36 0 51 33l179 410q9 -3 18 -3h660q9 0 18 3l179 -410q9 -21 30 -29t42 1t30 30q8 21 -1 42z" />
    <glyph glyph-name="AE" unicode="&#xc6;" horiz-adv-x="1772" 
d="M436 550l297 679l254 -679h-551zM1617 0q23 0 39 16t16 39t-16 39t-39 16h-347l-206 550h553q23 0 39 16t16 39t-16 39t-39 16h-595l-206 550h801q23 0 39 16t16 39t-16 39t-39 16h-881h-4h-1l-10 -2h-1l-4 -2t-1 0q-4 -2 -9 -5l-1 -1t-3 -2l-1 -1q-3 -3 -6 -7
q-1 0 -1 -1l-2 -2t-1 -2q-1 -1 -2 -3t-1 -1l-2 -4v0v-1l-385 -879q0 1 0 -1l-192 -439q-9 -21 -1 -42t29 -30q11 -5 22 -5q36 0 51 33l178 407h641l151 -404q14 -36 52 -36h385z" />
    <glyph glyph-name="Ccedilla" unicode="&#xc7;" horiz-adv-x="1437" 
d="M1282 1125q23 0 39 16q16 17 16 39q0 23 -16 39q-210 210 -506 210t-506 -210q-209 -209 -209 -505q0 -297 209 -506q166 -166 396 -201v-91q0 -23 16 -39t39 -16t39 16t16 39v83q296 0 506 209q16 16 16 39t-16 39t-39 16t-39 -16q-177 -177 -428 -177t-428 177
t-177 428t177 427q177 177 428 177t428 -177q16 -16 39 -16z" />
    <glyph glyph-name="Egrave" unicode="&#xc8;" horiz-adv-x="1218" 
d="M1063 1320q22 0 39 16q16 16 16 39t-16 39q-17 16 -39 16h-908q-23 0 -39 -16t-16 -39v-1320q0 -23 16 -39t39 -16h908q22 0 39 16q16 16 16 39t-16 39q-17 16 -39 16h-853v550h633q22 0 38 16q17 16 17 39t-17 39q-16 16 -38 16h-633v550h853zM515 1673q0 -23 16 -39
l78 -78q16 -16 39 -16q22 0 39 16q16 16 16 39t-16 39l-78 78q-16 16 -39 16t-39 -16t-16 -39z" />
    <glyph glyph-name="Eacute" unicode="&#xc9;" horiz-adv-x="1218" 
d="M1063 1320q22 0 39 16q16 16 16 39t-16 39q-17 16 -39 16h-908q-23 0 -39 -16t-16 -39v-1320q0 -23 16 -39t39 -16h908q22 0 39 16q16 16 16 39t-16 39q-17 16 -39 16h-853v550h633q22 0 38 16q17 16 17 39t-17 39q-16 16 -38 16h-633v550h853zM570 1540q23 0 39 16
l78 78q16 16 16 39t-16 39q-17 16 -39 16q-23 0 -39 -16l-78 -78q-16 -16 -16 -39t16 -39t39 -16z" />
    <glyph glyph-name="Ecircumflex" unicode="&#xca;" horiz-adv-x="1218" 
d="M1063 1320q22 0 39 16q16 16 16 39t-16 39q-17 16 -39 16h-908q-23 0 -39 -16t-16 -39v-1320q0 -23 16 -39t39 -16h908q22 0 39 16q16 16 16 39t-16 39q-17 16 -39 16h-853v550h633q22 0 38 16q17 16 17 39t-17 39q-16 16 -38 16h-633v550h853zM641 1714q-17 15 -38 14
q-22 -1 -38 -16l-78 -78q-16 -16 -16 -39t16 -39q17 -16 39 -16q23 0 39 16l41 41l49 -43q15 -14 36 -14q25 0 41 19q16 17 14 39q-1 23 -18 38z" />
    <glyph glyph-name="Edieresis" unicode="&#xcb;" horiz-adv-x="1218" 
d="M1063 1320q22 0 39 16q16 16 16 39t-16 39q-17 16 -39 16h-908q-23 0 -39 -16t-16 -39v-1320q0 -23 16 -39t39 -16h908q22 0 39 16q16 16 16 39t-16 39q-17 16 -39 16h-853v550h633q22 0 38 16q17 16 17 39t-17 39q-16 16 -38 16h-633v550h853zM774 1623q0 23 -16 39
t-39 16t-39 -16t-16 -39t16 -39t39 -16t39 16t16 39zM460 1584q16 -16 39 -16t39 16t16 39t-16 39t-39 16t-39 -16t-16 -39t16 -39z" />
    <glyph glyph-name="Igrave" unicode="&#xcc;" horiz-adv-x="388" 
d="M155 1414q-16 -16 -16 -39v-1320q0 -23 16 -39t39 -16t39 16t16 39v1320q0 23 -16 39t-39 16t-39 -16zM194 1712q-16 16 -39 16t-39 -16t-16 -39t16 -39l78 -78q16 -16 39 -16t39 16t16 39t-16 39z" />
    <glyph glyph-name="Iacute" unicode="&#xcd;" horiz-adv-x="388" 
d="M155 1414q-16 -16 -16 -39v-1320q0 -23 16 -39t39 -16t39 16t16 39v1320q0 23 -16 39t-39 16t-39 -16zM116 1634q-16 -16 -16 -39t16 -39t39 -16t39 16l78 78q16 16 16 39t-16 39t-39 16t-39 -16z" />
    <glyph glyph-name="Icircumflex" unicode="&#xce;" horiz-adv-x="476" 
d="M199 1414q-16 -16 -16 -39v-1320q0 -23 16 -39t39 -16q22 0 38 16q17 16 17 39v1320q0 23 -17 39q-16 16 -38 16q-23 0 -39 -16zM269 1714q-16 15 -38 14t-37 -16l-78 -78q-16 -16 -16 -39t16 -39t39 -16t39 16l41 41l48 -43q16 -14 37 -14q25 0 41 19q15 17 14 39
q-1 23 -18 38z" />
    <glyph glyph-name="Idieresis" unicode="&#xcf;" horiz-adv-x="530" 
d="M226 1414q-16 -16 -16 -39v-1320q0 -23 16 -39t39 -16t39 16t16 39v1320q0 23 -16 39t-39 16t-39 -16zM336 1662q-16 -17 -16 -39q0 -23 16 -39t39 -16t39 16t16 39q0 22 -16 39q-16 16 -39 16t-39 -16zM155 1678q-23 0 -39 -16q-16 -17 -16 -39q0 -23 16 -39t39 -16
t39 16t16 39q0 22 -16 39q-16 16 -39 16z" />
    <glyph glyph-name="Eth" unicode="&#xd0;" horiz-adv-x="1438" 
d="M348 110v550h220q22 0 38 16q17 16 17 39t-17 39q-16 16 -38 16h-220v550h275q250 0 427 -177q178 -178 178 -428t-178 -428q-177 -177 -427 -177h-275zM293 1430q-23 0 -39 -16t-16 -39v-605h-83q-23 0 -39 -16t-16 -39t16 -39t39 -16h83v-605q0 -23 16 -39t39 -16h330
q296 0 505 209q210 210 210 506t-210 506q-209 209 -505 209h-330z" />
    <glyph glyph-name="Ntilde" unicode="&#xd1;" horiz-adv-x="1328" 
d="M739 1666q-16 -9 -30 -7q-8 1 -29 18q-5 4 -8 7q-65 52 -131 29q-32 -11 -66 -43q-16 -15 -17 -38t15 -39q15 -17 38 -18q23 0 39 15q17 16 27 19q9 3 26 -11q2 -2 7 -5q45 -38 83 -43q10 -2 20 -2q42 0 80 23q25 14 60 48q17 15 17 38t-16 39q-16 17 -38 17
q-23 0 -39 -16q-25 -23 -38 -31zM1134 1414q-16 -16 -16 -39v-1159l-919 1193q-24 31 -62 18q-37 -12 -37 -52v-1320q0 -23 16 -39t39 -16t39 16t16 39v1159l919 -1193q17 -21 44 -21q9 0 17 3q38 13 38 52v1320q0 23 -16 39q-17 16 -39 16q-23 0 -39 -16z" />
    <glyph glyph-name="Ograve" unicode="&#xd2;" 
d="M387 287q-177 178 -177 428t177 428q178 177 428 177t428 -177q177 -178 177 -428t-177 -428q-178 -177 -428 -177t-428 177zM309 1221q-209 -210 -209 -506t209 -506q210 -209 506 -209t506 209q209 210 209 506t-209 506q-210 209 -506 209t-506 -209zM721 1673
q0 -23 16 -39l78 -78q16 -16 39 -16t39 16t16 39t-16 39l-78 78q-16 16 -39 16t-39 -16t-16 -39z" />
    <glyph glyph-name="Oacute" unicode="&#xd3;" 
d="M387 287q-177 178 -177 428t177 428q178 177 428 177t428 -177q177 -178 177 -428t-177 -428q-178 -177 -428 -177t-428 177zM309 1221q-209 -210 -209 -506t209 -506q210 -209 506 -209t506 209q209 210 209 506t-209 506q-210 209 -506 209t-506 -209zM776 1540
q23 0 39 16l78 78q16 16 16 39t-16 39t-39 16t-39 -16l-78 -78q-16 -16 -16 -39t16 -39t39 -16z" />
    <glyph glyph-name="Ocircumflex" unicode="&#xd4;" 
d="M387 287q-177 178 -177 428t177 428q178 177 428 177t428 -177q177 -178 177 -428t-177 -428q-178 -177 -428 -177t-428 177zM309 1221q-209 -210 -209 -506t209 -506q210 -209 506 -209t506 209q209 210 209 506t-209 506q-210 209 -506 209t-506 -209zM813 1597l48 -43
q16 -14 37 -14q24 0 41 19q15 17 14 39q-2 23 -19 38l-87 78q-16 15 -38 14t-38 -16l-77 -78q-16 -16 -16 -39t16 -39t39 -16q22 0 38 16z" />
    <glyph glyph-name="Otilde" unicode="&#xd5;" 
d="M387 287q-177 178 -177 428t177 428q178 177 428 177t428 -177q177 -178 177 -428t-177 -428q-178 -177 -428 -177t-428 177zM309 1221q-209 -210 -209 -506t209 -506q210 -209 506 -209t506 209q209 210 209 506t-209 506q-210 209 -506 209t-506 -209zM728 1609
q9 3 26 -11q2 -1 7 -5q45 -38 84 -43q9 -2 19 -2q42 0 81 23q25 14 59 48q17 15 17 38t-15 39q-16 17 -39 17t-39 -16q-25 -23 -38 -31q-16 -9 -29 -7q-9 1 -29 18q-6 5 -9 7q-64 52 -131 29q-32 -11 -66 -43q-16 -15 -17 -38t15 -39q16 -17 38 -18q23 0 40 15q16 16 26 19z
" />
    <glyph glyph-name="Odieresis" unicode="&#xd6;" 
d="M387 287q-177 178 -177 428t177 428q178 177 428 177t428 -177q177 -178 177 -428t-177 -428q-178 -177 -428 -177t-428 177zM309 1221q-209 -210 -209 -506t209 -506q210 -209 506 -209t506 209q209 210 209 506t-209 506q-210 209 -506 209t-506 -209zM980 1623
q0 22 -16 39q-16 16 -39 16t-39 -16q-16 -17 -16 -39q0 -23 16 -39t39 -16t39 16t16 39zM705 1568q23 0 39 16t16 39t-16 39t-39 16t-39 -16t-16 -39t16 -39t39 -16z" />
    <glyph glyph-name="multiply" unicode="&#xd7;" horiz-adv-x="641" 
d="M525 506q16 16 16 39t-16 39l-127 126l127 127q16 16 16 39q0 22 -16 39q-17 16 -39 16q-23 0 -39 -16l-127 -127l-126 127q-16 16 -39 16t-39 -16q-16 -17 -16 -39q0 -23 16 -39l127 -127l-127 -126q-16 -16 -16 -39t16 -39t39 -16t39 16l126 127l127 -127
q16 -16 39 -16q22 0 39 16z" />
    <glyph glyph-name="Oslash" unicode="&#xd8;" 
d="M1243 287q-178 -177 -428 -177q-219 0 -387 140l852 852q140 -168 140 -387q0 -250 -177 -428zM387 1143q178 177 428 177q219 0 387 -140l-852 -852q-140 168 -140 387q0 250 177 428zM1475 1430q-23 0 -39 -16l-156 -156q-200 172 -465 172q-296 0 -506 -209
q-209 -210 -209 -506q0 -265 172 -465l-156 -156q-16 -16 -16 -39t16 -39t39 -16t39 16l156 156q200 -172 465 -172q296 0 506 209q209 210 209 506q0 265 -172 465l156 156q16 16 16 39t-16 39t-39 16z" />
    <glyph glyph-name="Ugrave" unicode="&#xd9;" horiz-adv-x="1273" 
d="M714 1561q16 16 16 39t-16 39l-78 78q-16 16 -39 16q-22 0 -38 -16q-17 -17 -17 -39q0 -23 17 -39l77 -78q16 -16 39 -16t39 16zM1079 1414q-16 -16 -16 -39v-839q0 -176 -125 -301t-302 -125q-176 0 -301 125t-125 301v839q0 23 -16 39t-39 16t-39 -16t-16 -39v-839
q0 -221 157 -379q158 -157 379 -157q222 0 379 157q158 158 158 379v839q0 23 -16 39q-17 16 -39 16q-23 0 -39 -16z" />
    <glyph glyph-name="Uacute" unicode="&#xda;" horiz-adv-x="1273" 
d="M714 1639q16 16 16 39q0 22 -16 39q-16 16 -39 16t-39 -16l-77 -78q-17 -16 -17 -39t17 -39q16 -16 38 -16q23 0 39 16zM1079 1414q-16 -16 -16 -39v-839q0 -176 -125 -301t-302 -125q-176 0 -301 125t-125 301v839q0 23 -16 39t-39 16t-39 -16t-16 -39v-839
q0 -221 157 -379q158 -157 379 -157q222 0 379 157q158 158 158 379v839q0 23 -16 39q-17 16 -39 16q-23 0 -39 -16z" />
    <glyph glyph-name="Ucircumflex" unicode="&#xdb;" horiz-adv-x="1273" 
d="M634 1602l48 -43q16 -14 37 -14q24 0 41 18q15 17 14 40q-2 23 -19 38l-87 78q-16 14 -38 14q-22 -1 -37 -16l-78 -78q-16 -16 -16 -39t16 -39t39 -16t39 16zM1079 1414q-16 -16 -16 -39v-839q0 -176 -125 -301t-302 -125q-176 0 -301 125t-125 301v839q0 23 -16 39
t-39 16t-39 -16t-16 -39v-839q0 -221 157 -379q158 -157 379 -157q222 0 379 157q158 158 158 379v839q0 23 -16 39q-17 16 -39 16q-23 0 -39 -16z" />
    <glyph glyph-name="Udieresis" unicode="&#xdc;" horiz-adv-x="1273" 
d="M801 1627q0 23 -16 39t-39 16q-22 0 -39 -16q-16 -16 -16 -39q0 -22 16 -38q17 -17 39 -17q23 0 39 17q16 16 16 38zM581 1627q0 23 -16 39t-39 16q-22 0 -39 -16q-16 -16 -16 -39q0 -22 16 -38q17 -17 39 -17q23 0 39 17q16 16 16 38zM1079 1414q-16 -16 -16 -39v-839
q0 -176 -125 -301t-302 -125q-176 0 -301 125t-125 301v839q0 23 -16 39t-39 16t-39 -16t-16 -39v-839q0 -221 157 -379q158 -157 379 -157q222 0 379 157q158 158 158 379v839q0 23 -16 39q-17 16 -39 16q-23 0 -39 -16z" />
    <glyph glyph-name="Yacute" unicode="&#xdd;" horiz-adv-x="1363" 
d="M759 1639q17 16 17 39q0 22 -17 39q-16 16 -38 16q-23 0 -39 -16l-78 -78q-16 -16 -16 -39t16 -39t39 -16t39 16zM1192 1429q-22 -5 -34 -24l-476 -752l-476 752q-13 19 -35 24t-41 -7q-20 -13 -25 -35t8 -41l514 -812v-479q0 -23 16 -39t39 -16q22 0 39 16q16 16 16 39
v479l514 812q12 19 7 41t-24 35q-20 12 -42 7z" />
    <glyph glyph-name="Thorn" unicode="&#xde;" horiz-adv-x="998" 
d="M210 409v612h272q126 0 216 -90q90 -89 90 -216q0 -126 -90 -216t-216 -90h-272zM210 1131v244q0 23 -16 39t-39 16t-39 -16t-16 -39v-1320q0 -23 16 -39t39 -16t39 16t16 39v244h272q172 0 294 122t122 294t-122 294t-294 122h-272z" />
    <glyph glyph-name="germandbls" unicode="&#xdf;" horiz-adv-x="1108" 
d="M895 1317q-113 113 -272 113h-138q-159 0 -272 -113t-113 -272v-990q0 -23 16 -39t39 -16t39 16t16 39v990q0 114 81 195q80 80 194 80h138q113 0 194 -80q81 -81 81 -195t-81 -194q-81 -81 -194 -81h-138q-23 0 -39 -16t-16 -39t16 -39t39 -16h138q113 0 194 -81
q81 -80 81 -194t-81 -194q-81 -81 -194 -81h-138q-23 0 -39 -16t-16 -39t16 -39t39 -16h138q159 0 272 113t113 272q0 217 -187 330q85 52 135 138q52 89 52 192q0 159 -113 272z" />
    <glyph glyph-name="agrave" unicode="&#xe0;" horiz-adv-x="1474" 
d="M436 550l301 688l301 -688h-602zM787 1397q-14 33 -50 33t-51 -33l-577 -1320q-9 -21 -1 -42t29 -30q11 -5 22 -5q36 0 51 33l179 410q9 -3 18 -3h660q9 0 18 3l179 -410q9 -21 30 -29t42 1t30 30q8 21 -1 42zM654 1673q0 -23 16 -39l78 -78q16 -16 39 -16t39 16
q16 17 16 39q0 23 -16 39l-78 78q-16 16 -39 16t-39 -16t-16 -39z" />
    <glyph glyph-name="aacute" unicode="&#xe1;" horiz-adv-x="1474" 
d="M436 550l301 688l301 -688h-602zM787 1397q-14 33 -50 33t-51 -33l-577 -1320q-9 -21 -1 -42t29 -30q11 -5 22 -5q36 0 51 33l179 410q9 -3 18 -3h660q9 0 18 3l179 -410q9 -21 30 -29t42 1t30 30q8 21 -1 42zM670 1634q-16 -16 -16 -39q0 -22 16 -39q16 -16 39 -16
t39 16l78 78q16 16 16 39t-16 39t-39 16t-39 -16z" />
    <glyph glyph-name="acircumflex" unicode="&#xe2;" horiz-adv-x="1474" 
d="M436 550l301 688l301 -688h-602zM787 1397q-14 33 -50 33t-51 -33l-577 -1320q-9 -21 -1 -42t29 -30q11 -5 22 -5q36 0 51 33l179 410q9 -3 18 -3h660q9 0 18 3l179 -410q9 -21 30 -29t42 1t30 30q8 21 -1 42zM769 1714q-17 15 -39 14q-21 0 -37 -16l-78 -78
q-16 -16 -16 -39q0 -22 16 -39q16 -16 39 -16t39 16l41 42l49 -44q15 -14 36 -14q25 0 41 19q15 17 14 39q-1 23 -18 38z" />
    <glyph glyph-name="atilde" unicode="&#xe3;" horiz-adv-x="1474" 
d="M436 550l301 688l301 -688h-602zM1366 35q8 21 -1 42l-578 1320q-14 33 -50 33t-51 -33l-577 -1320q-9 -21 -1 -42t29 -30q11 -5 22 -5q36 0 51 33l179 410q9 -3 18 -3h660q9 0 18 3l179 -410q9 -21 30 -29t42 1t30 30zM825 1666q-16 -9 -29 -7q-8 1 -29 18q-5 5 -8 7
q-65 52 -132 29q-32 -11 -65 -43q-17 -15 -18 -38q0 -23 15 -39q16 -17 39 -18q22 0 39 15q16 16 26 19q9 3 27 -11q2 -1 7 -5q44 -37 83 -43q10 -1 20 -1q41 0 80 22q25 14 60 48q16 16 16 38q1 23 -15 39q-16 17 -39 17q-23 1 -39 -15q-25 -24 -38 -32z" />
    <glyph glyph-name="adieresis" unicode="&#xe4;" horiz-adv-x="1474" 
d="M808 1584q16 -16 39 -16t39 16t16 39t-16 39t-39 16t-39 -16t-16 -39t16 -39zM588 1662q-16 -16 -16 -39t16 -39t39 -16t39 16t16 39t-16 39t-39 16t-39 -16zM436 550l301 688l301 -688h-602zM787 1397q-14 33 -50 33t-51 -33l-577 -1320q-9 -21 -1 -42t29 -30
q11 -5 22 -5q36 0 51 33l179 410q9 -3 18 -3h660q9 0 18 3l179 -410q9 -21 30 -29t42 1t30 30q8 21 -1 42z" />
    <glyph glyph-name="aring" unicode="&#xe5;" horiz-adv-x="1474" 
d="M436 550l301 688l301 -688h-602zM766 1542q12 -12 12 -29t-12 -29t-29 -12t-29 12q-13 12 -13 29t13 29q12 12 29 12t29 -12zM787 1397q0 1 -1 2q75 33 75 114q0 51 -37 87q-36 37 -87 37t-88 -37q-36 -36 -36 -87q0 -81 74 -114l-1 -2l-577 -1320q-9 -21 -1 -42t29 -30
q11 -5 22 -5q36 0 51 33l179 410q9 -3 18 -3h660q9 0 18 3l179 -410q9 -21 30 -29t42 1t30 30q8 21 -1 42z" />
    <glyph glyph-name="ae" unicode="&#xe6;" horiz-adv-x="1772" 
d="M436 550l297 679l254 -679h-551zM1617 0q23 0 39 16t16 39t-16 39t-39 16h-347l-206 550h553q23 0 39 16t16 39t-16 39t-39 16h-595l-206 550h801q23 0 39 16t16 39t-16 39t-39 16h-881h-4h-1l-10 -2h-1l-4 -2t-1 0q-4 -2 -9 -5l-1 -1t-3 -2l-1 -1q-3 -3 -6 -7
q-1 0 -1 -1l-2 -2t-1 -2q-1 -1 -2 -3t-1 -1l-2 -4v0v-1l-385 -879q0 1 0 -1l-192 -439q-9 -21 -1 -42t29 -30q11 -5 22 -5q36 0 51 33l178 407h641l151 -404q14 -36 52 -36h385z" />
    <glyph glyph-name="ccedilla" unicode="&#xe7;" horiz-adv-x="1437" 
d="M1282 1125q23 0 39 16q16 17 16 39q0 23 -16 39q-210 210 -506 210t-506 -210q-209 -209 -209 -505q0 -297 209 -506q166 -166 396 -201v-91q0 -23 16 -39t39 -16t39 16t16 39v83q296 0 506 209q16 16 16 39t-16 39t-39 16t-39 -16q-177 -177 -428 -177t-428 177
t-177 428t177 427q177 177 428 177t428 -177q16 -16 39 -16z" />
    <glyph glyph-name="egrave" unicode="&#xe8;" horiz-adv-x="1218" 
d="M1063 1320q22 0 39 16q16 16 16 39t-16 39q-17 16 -39 16h-908q-23 0 -39 -16t-16 -39v-1320q0 -23 16 -39t39 -16h908q22 0 39 16q16 16 16 39t-16 39q-17 16 -39 16h-853v550h633q22 0 38 16q17 16 17 39t-17 39q-16 16 -38 16h-633v550h853zM515 1673q0 -23 16 -39
l78 -78q16 -16 39 -16q22 0 39 16q16 16 16 39t-16 39l-78 78q-16 16 -39 16t-39 -16t-16 -39z" />
    <glyph glyph-name="eacute" unicode="&#xe9;" horiz-adv-x="1218" 
d="M1063 1320q22 0 39 16q16 16 16 39t-16 39q-17 16 -39 16h-908q-23 0 -39 -16t-16 -39v-1320q0 -23 16 -39t39 -16h908q22 0 39 16q16 16 16 39t-16 39q-17 16 -39 16h-853v550h633q22 0 38 16q17 16 17 39t-17 39q-16 16 -38 16h-633v550h853zM570 1540q23 0 39 16
l78 78q16 16 16 39t-16 39q-17 16 -39 16q-23 0 -39 -16l-78 -78q-16 -16 -16 -39t16 -39t39 -16z" />
    <glyph glyph-name="ecircumflex" unicode="&#xea;" horiz-adv-x="1218" 
d="M1063 1320q22 0 39 16q16 16 16 39t-16 39q-17 16 -39 16h-908q-23 0 -39 -16t-16 -39v-1320q0 -23 16 -39t39 -16h908q22 0 39 16q16 16 16 39t-16 39q-17 16 -39 16h-853v550h633q22 0 38 16q17 16 17 39t-17 39q-16 16 -38 16h-633v550h853zM641 1714q-17 15 -38 14
q-22 -1 -38 -16l-78 -78q-16 -16 -16 -39t16 -39q17 -16 39 -16q23 0 39 16l41 41l49 -43q15 -14 36 -14q25 0 41 19q16 17 14 39q-1 23 -18 38z" />
    <glyph glyph-name="edieresis" unicode="&#xeb;" horiz-adv-x="1218" 
d="M1063 1320q22 0 39 16q16 16 16 39t-16 39q-17 16 -39 16h-908q-23 0 -39 -16t-16 -39v-1320q0 -23 16 -39t39 -16h908q22 0 39 16q16 16 16 39t-16 39q-17 16 -39 16h-853v550h633q22 0 38 16q17 16 17 39t-17 39q-16 16 -38 16h-633v550h853zM774 1623q0 23 -16 39
t-39 16t-39 -16t-16 -39t16 -39t39 -16t39 16t16 39zM460 1584q16 -16 39 -16t39 16t16 39t-16 39t-39 16t-39 -16t-16 -39t16 -39z" />
    <glyph glyph-name="igrave" unicode="&#xec;" horiz-adv-x="388" 
d="M155 1414q-16 -16 -16 -39v-1320q0 -23 16 -39t39 -16t39 16t16 39v1320q0 23 -16 39t-39 16t-39 -16zM194 1712q-16 16 -39 16t-39 -16t-16 -39t16 -39l78 -78q16 -16 39 -16t39 16t16 39t-16 39z" />
    <glyph glyph-name="iacute" unicode="&#xed;" horiz-adv-x="388" 
d="M155 1414q-16 -16 -16 -39v-1320q0 -23 16 -39t39 -16t39 16t16 39v1320q0 23 -16 39t-39 16t-39 -16zM116 1634q-16 -16 -16 -39t16 -39t39 -16t39 16l78 78q16 16 16 39t-16 39t-39 16t-39 -16z" />
    <glyph glyph-name="icircumflex" unicode="&#xee;" horiz-adv-x="476" 
d="M199 1414q-16 -16 -16 -39v-1320q0 -23 16 -39t39 -16q22 0 38 16q17 16 17 39v1320q0 23 -17 39q-16 16 -38 16q-23 0 -39 -16zM269 1714q-16 15 -38 14t-37 -16l-78 -78q-16 -16 -16 -39t16 -39t39 -16t39 16l41 41l48 -43q16 -14 37 -14q25 0 41 19q15 17 14 39
q-1 23 -18 38z" />
    <glyph glyph-name="idieresis" unicode="&#xef;" horiz-adv-x="530" 
d="M226 1414q-16 -16 -16 -39v-1320q0 -23 16 -39t39 -16t39 16t16 39v1320q0 23 -16 39t-39 16t-39 -16zM336 1662q-16 -17 -16 -39q0 -23 16 -39t39 -16t39 16t16 39q0 22 -16 39q-16 16 -39 16t-39 -16zM155 1678q-23 0 -39 -16q-16 -17 -16 -39q0 -23 16 -39t39 -16
t39 16t16 39q0 22 -16 39q-16 16 -39 16z" />
    <glyph glyph-name="eth" unicode="&#xf0;" horiz-adv-x="1438" 
d="M348 110v550h220q22 0 38 16q17 16 17 39t-17 39q-16 16 -38 16h-220v550h275q250 0 427 -177q178 -178 178 -428t-178 -428q-177 -177 -427 -177h-275zM293 1430q-23 0 -39 -16t-16 -39v-605h-83q-23 0 -39 -16t-16 -39t16 -39t39 -16h83v-605q0 -23 16 -39t39 -16h330
q296 0 505 209q210 210 210 506t-210 506q-209 209 -505 209h-330z" />
    <glyph glyph-name="ntilde" unicode="&#xf1;" horiz-adv-x="1328" 
d="M739 1666q-16 -9 -30 -7q-8 1 -29 18q-5 4 -8 7q-65 52 -131 29q-32 -11 -66 -43q-16 -15 -17 -38t15 -39q15 -17 38 -18q23 0 39 15q17 16 27 19q9 3 26 -11q2 -2 7 -5q45 -38 83 -43q10 -2 20 -2q42 0 80 23q25 14 60 48q17 15 17 38t-16 39q-16 17 -38 17
q-23 0 -39 -16q-25 -23 -38 -31zM1134 1414q-16 -16 -16 -39v-1159l-919 1193q-24 31 -62 18q-37 -12 -37 -52v-1320q0 -23 16 -39t39 -16t39 16t16 39v1159l919 -1193q17 -21 44 -21q9 0 17 3q38 13 38 52v1320q0 23 -16 39q-17 16 -39 16q-23 0 -39 -16z" />
    <glyph glyph-name="ograve" unicode="&#xf2;" 
d="M387 287q-177 178 -177 428t177 428q178 177 428 177t428 -177q177 -178 177 -428t-177 -428q-178 -177 -428 -177t-428 177zM309 1221q-209 -210 -209 -506t209 -506q210 -209 506 -209t506 209q209 210 209 506t-209 506q-210 209 -506 209t-506 -209zM721 1673
q0 -23 16 -39l78 -78q16 -16 39 -16t39 16t16 39t-16 39l-78 78q-16 16 -39 16t-39 -16t-16 -39z" />
    <glyph glyph-name="oacute" unicode="&#xf3;" 
d="M387 287q-177 178 -177 428t177 428q178 177 428 177t428 -177q177 -178 177 -428t-177 -428q-178 -177 -428 -177t-428 177zM309 1221q-209 -210 -209 -506t209 -506q210 -209 506 -209t506 209q209 210 209 506t-209 506q-210 209 -506 209t-506 -209zM776 1540
q23 0 39 16l78 78q16 16 16 39t-16 39t-39 16t-39 -16l-78 -78q-16 -16 -16 -39t16 -39t39 -16z" />
    <glyph glyph-name="ocircumflex" unicode="&#xf4;" 
d="M387 287q-177 178 -177 428t177 428q178 177 428 177t428 -177q177 -178 177 -428t-177 -428q-178 -177 -428 -177t-428 177zM309 1221q-209 -210 -209 -506t209 -506q210 -209 506 -209t506 209q209 210 209 506t-209 506q-210 209 -506 209t-506 -209zM813 1597l48 -43
q16 -14 37 -14q24 0 41 19q15 17 14 39q-2 23 -19 38l-87 78q-16 15 -38 14t-38 -16l-77 -78q-16 -16 -16 -39t16 -39t39 -16q22 0 38 16z" />
    <glyph glyph-name="otilde" unicode="&#xf5;" 
d="M387 287q-177 178 -177 428t177 428q178 177 428 177t428 -177q177 -178 177 -428t-177 -428q-178 -177 -428 -177t-428 177zM309 1221q-209 -210 -209 -506t209 -506q210 -209 506 -209t506 209q209 210 209 506t-209 506q-210 209 -506 209t-506 -209zM728 1609
q9 3 26 -11q2 -1 7 -5q45 -38 84 -43q9 -2 19 -2q42 0 81 23q25 14 59 48q17 15 17 38t-15 39q-16 17 -39 17t-39 -16q-25 -23 -38 -31q-16 -9 -29 -7q-9 1 -29 18q-6 5 -9 7q-64 52 -131 29q-32 -11 -66 -43q-16 -15 -17 -38t15 -39q16 -17 38 -18q23 0 40 15q16 16 26 19z
" />
    <glyph glyph-name="odieresis" unicode="&#xf6;" 
d="M387 287q-177 178 -177 428t177 428q178 177 428 177t428 -177q177 -178 177 -428t-177 -428q-178 -177 -428 -177t-428 177zM309 1221q-209 -210 -209 -506t209 -506q210 -209 506 -209t506 209q209 210 209 506t-209 506q-210 209 -506 209t-506 -209zM980 1623
q0 22 -16 39q-16 16 -39 16t-39 -16q-16 -17 -16 -39q0 -23 16 -39t39 -16t39 16t16 39zM705 1568q23 0 39 16t16 39t-16 39t-39 16t-39 -16t-16 -39t16 -39t39 -16z" />
    <glyph glyph-name="divide" unicode="&#xf7;" horiz-adv-x="778" 
d="M428 511q16 16 16 39t-16 39t-39 16t-39 -16t-16 -39t16 -39t39 -16t39 16zM444 880q0 23 -16 39t-39 16t-39 -16t-16 -39t16 -39t39 -16t39 16t16 39zM661 754q-16 16 -38 16h-468q-23 0 -39 -16t-16 -39t16 -39t39 -16h468q22 0 38 16q17 16 17 39t-17 39z" />
    <glyph glyph-name="oslash" unicode="&#xf8;" 
d="M1243 287q-178 -177 -428 -177q-219 0 -387 140l852 852q140 -168 140 -387q0 -250 -177 -428zM387 1143q178 177 428 177q219 0 387 -140l-852 -852q-140 168 -140 387q0 250 177 428zM1475 1430q-23 0 -39 -16l-156 -156q-200 172 -465 172q-296 0 -506 -209
q-209 -210 -209 -506q0 -265 172 -465l-156 -156q-16 -16 -16 -39t16 -39t39 -16t39 16l156 156q200 -172 465 -172q296 0 506 209q209 210 209 506q0 265 -172 465l156 156q16 16 16 39t-16 39t-39 16z" />
    <glyph glyph-name="ugrave" unicode="&#xf9;" horiz-adv-x="1273" 
d="M714 1561q16 16 16 39t-16 39l-78 78q-16 16 -39 16q-22 0 -38 -16q-17 -17 -17 -39q0 -23 17 -39l77 -78q16 -16 39 -16t39 16zM1079 1414q-16 -16 -16 -39v-839q0 -176 -125 -301t-302 -125q-176 0 -301 125t-125 301v839q0 23 -16 39t-39 16t-39 -16t-16 -39v-839
q0 -221 157 -379q158 -157 379 -157q222 0 379 157q158 158 158 379v839q0 23 -16 39q-17 16 -39 16q-23 0 -39 -16z" />
    <glyph glyph-name="uacute" unicode="&#xfa;" horiz-adv-x="1273" 
d="M714 1639q16 16 16 39q0 22 -16 39q-16 16 -39 16t-39 -16l-77 -78q-17 -16 -17 -39t17 -39q16 -16 38 -16q23 0 39 16zM1079 1414q-16 -16 -16 -39v-839q0 -176 -125 -301t-302 -125q-176 0 -301 125t-125 301v839q0 23 -16 39t-39 16t-39 -16t-16 -39v-839
q0 -221 157 -379q158 -157 379 -157q222 0 379 157q158 158 158 379v839q0 23 -16 39q-17 16 -39 16q-23 0 -39 -16z" />
    <glyph glyph-name="ucircumflex" unicode="&#xfb;" horiz-adv-x="1273" 
d="M634 1602l48 -43q16 -14 37 -14q24 0 41 18q15 17 14 40q-2 23 -19 38l-87 78q-16 14 -38 14q-22 -1 -37 -16l-78 -78q-16 -16 -16 -39t16 -39t39 -16t39 16zM1079 1414q-16 -16 -16 -39v-839q0 -176 -125 -301t-302 -125q-176 0 -301 125t-125 301v839q0 23 -16 39
t-39 16t-39 -16t-16 -39v-839q0 -221 157 -379q158 -157 379 -157q222 0 379 157q158 158 158 379v839q0 23 -16 39q-17 16 -39 16q-23 0 -39 -16z" />
    <glyph glyph-name="udieresis" unicode="&#xfc;" horiz-adv-x="1273" 
d="M801 1627q0 23 -16 39t-39 16q-22 0 -39 -16q-16 -16 -16 -39q0 -22 16 -38q17 -17 39 -17q23 0 39 17q16 16 16 38zM581 1627q0 23 -16 39t-39 16q-22 0 -39 -16q-16 -16 -16 -39q0 -22 16 -38q17 -17 39 -17q23 0 39 17q16 16 16 38zM1079 1414q-16 -16 -16 -39v-839
q0 -176 -125 -301t-302 -125q-176 0 -301 125t-125 301v839q0 23 -16 39t-39 16t-39 -16t-16 -39v-839q0 -221 157 -379q158 -157 379 -157q222 0 379 157q158 158 158 379v839q0 23 -16 39q-17 16 -39 16q-23 0 -39 -16z" />
    <glyph glyph-name="yacute" unicode="&#xfd;" horiz-adv-x="1363" 
d="M759 1639q17 16 17 39q0 22 -17 39q-16 16 -38 16q-23 0 -39 -16l-78 -78q-16 -16 -16 -39t16 -39t39 -16t39 16zM1192 1429q-22 -5 -34 -24l-476 -752l-476 752q-13 19 -35 24t-41 -7q-20 -13 -25 -35t8 -41l514 -812v-479q0 -23 16 -39t39 -16q22 0 39 16q16 16 16 39
v479l514 812q12 19 7 41t-24 35q-20 12 -42 7z" />
    <glyph glyph-name="thorn" unicode="&#xfe;" horiz-adv-x="998" 
d="M210 409v612h272q126 0 216 -90q90 -89 90 -216q0 -126 -90 -216t-216 -90h-272zM210 1131v244q0 23 -16 39t-39 16t-39 -16t-16 -39v-1320q0 -23 16 -39t39 -16t39 16t16 39v244h272q172 0 294 122t122 294t-122 294t-294 122h-272z" />
    <glyph glyph-name="ydieresis" unicode="&#xff;" horiz-adv-x="1363" 
d="M847 1627q0 23 -16 39q-17 16 -39 16q-23 0 -39 -16t-16 -39q0 -22 16 -38q16 -17 39 -17q22 0 39 17q16 16 16 38zM627 1627q0 23 -16 39q-17 16 -39 16q-23 0 -39 -16t-16 -39q0 -22 16 -38q16 -17 39 -17q22 0 39 17q16 16 16 38zM1192 1429q-22 -5 -34 -24l-476 -752
l-476 752q-13 19 -35 24t-41 -7q-20 -13 -25 -35t8 -41l514 -812v-479q0 -23 16 -39t39 -16q22 0 39 16q16 16 16 39v479l514 812q12 19 7 41t-24 35q-20 12 -42 7z" />
    <glyph glyph-name="dotlessi" unicode="&#x131;" horiz-adv-x="310" 
d="M194 16q16 16 16 39v1320q0 23 -16 39t-39 16t-39 -16t-16 -39v-1320q0 -23 16 -39t39 -16t39 16z" />
    <glyph glyph-name="quoteleft" unicode="&#x2018;" horiz-adv-x="310" 
d="M194 1226q16 16 16 39v110q0 23 -16 39t-39 16t-39 -16t-16 -39v-110q0 -23 16 -39t39 -16t39 16z" />
    <glyph glyph-name="quoteright" unicode="&#x2019;" horiz-adv-x="310" 
d="M194 1226q16 16 16 39v110q0 23 -16 39t-39 16t-39 -16t-16 -39v-110q0 -23 16 -39t39 -16t39 16z" />
    <glyph glyph-name="quotedblleft" unicode="&#x201c;" horiz-adv-x="475" 
d="M194 1226q16 16 16 39v110q0 23 -16 39t-39 16t-39 -16t-16 -39v-110q0 -23 16 -39t39 -16t39 16zM375 1375q0 23 -16 39t-39 16t-39 -16t-16 -39v-110q0 -23 16 -39t39 -16t39 16t16 39v110z" />
    <glyph glyph-name="quotedblright" unicode="&#x201d;" horiz-adv-x="475" 
d="M194 1226q16 16 16 39v110q0 23 -16 39t-39 16t-39 -16t-16 -39v-110q0 -23 16 -39t39 -16t39 16zM375 1375q0 23 -16 39t-39 16t-39 -16t-16 -39v-110q0 -23 16 -39t39 -16t39 16t16 39v110z" />
    <glyph glyph-name="guilsinglleft" unicode="&#x2039;" horiz-adv-x="586" 
d="M433 1015q-23 1 -40 -14l-275 -248q-18 -16 -18 -40q0 -25 18 -41l275 -248q16 -14 37 -14q25 0 41 18q15 17 14 40t-18 38l-230 207l230 206q17 15 18 38t-14 40t-38 18z" />
    <glyph glyph-name="guilsinglright" unicode="&#x203a;" horiz-adv-x="586" 
d="M101 957q1 -23 18 -38l230 -206l-230 -207q-17 -15 -18 -38t14 -40q17 -18 41 -18q21 0 37 14l275 248q18 16 18 41q0 24 -18 40l-275 248q-17 15 -40 14t-38 -18t-14 -40z" />
    <glyph glyph-name="Euro" unicode="&#x20ac;" horiz-adv-x="1080" 
d="M964 1336q16 16 16 39t-16 39t-39 16q-296 0 -506 -209q-155 -155 -196 -368h-68q-23 0 -39 -17q-16 -16 -16 -38q0 -23 16 -39t39 -16h56q-1 -16 -1 -28q0 -41 5 -82h-60q-23 0 -39 -17q-16 -16 -16 -38q0 -23 16 -39t39 -16h81q50 -180 183 -314q210 -209 506 -209
q23 0 39 16t16 39t-16 39t-39 16q-197 0 -356 116q-156 115 -218 297h409q23 0 39 16t16 39q0 22 -16 38q-16 17 -39 17h-434q-6 41 -6 82q0 13 1 28h439q23 0 39 16t16 39q0 22 -16 38q-16 17 -39 17h-424q47 202 210 334q166 133 379 133q23 0 39 16z" />
    <glyph glyph-name="minus" unicode="&#x2212;" horiz-adv-x="778" 
d="M661 754q-16 16 -38 16h-468q-23 0 -39 -16t-16 -39t16 -39t39 -16h468q22 0 38 16q17 16 17 39t-17 39z" />
    <glyph glyph-name="uniF001" unicode="&#xf001;" horiz-adv-x="1073" 
 />
    <glyph glyph-name="uniF001" unicode="&#xfb01;" horiz-adv-x="1073" 
 />
    <glyph glyph-name="uniF002" unicode="&#xf002;" horiz-adv-x="1081" 
 />
    <glyph glyph-name="uniF002" unicode="&#xfb02;" horiz-adv-x="1081" 
 />
    </font>
</defs>
</svg>
