<?xml version="1.0" encoding="UTF-8"?>
<svg width="71px" height="84px" viewBox="0 0 71 84" version="1.1" xmlns="http://www.w3.org/2000/svg" xmlns:xlink="http://www.w3.org/1999/xlink">
    <!-- Generator: Sketch 46.2 (44496) - http://www.bohemiancoding.com/sketch -->
    <title>Group 2</title>
    <desc>Created with Sketch.</desc>
    <defs></defs>
    <g id="Play-Flow" stroke="none" stroke-width="1" fill="none" fill-rule="evenodd">
        <g id="01_Play" transform="translate(-1010.000000, -492.000000)">
            <g id="Group" transform="translate(115.000000, 371.000000)">
                <g id="Group-5-Copy" transform="translate(650.000000, 0.000000)">
                    <g id="Group-22" transform="translate(163.000000, 121.000000)">
                        <g id="Group-2" transform="translate(82.000000, 0.000000)">
                            <g id="Icon-frame">
                                <path d="M69,60 C70.104,60 71,60.896 71,62 C71,63.104 70.104,64 69,64 C67.896,64 67,63.104 67,62 C67,60.896 67.896,60 69,60" id="Fill-1" fill="#FFBE00"></path>
                                <path d="M69,20 C70.104,20 71,20.896 71,22 C71,23.104 70.104,24 69,24 C67.896,24 67,23.104 67,22 C67,20.896 67.896,20 69,20" id="Fill-3" fill="#FFBE00"></path>
                                <path d="M2,60 C3.104,60 4,60.896 4,62 C4,63.104 3.104,64 2,64 C0.896,64 0,63.104 0,62 C0,60.896 0.896,60 2,60" id="Fill-5" fill="#FFBE00"></path>
                                <path d="M35,80 C36.104,80 37,80.896 37,82 C37,83.104 36.104,84 35,84 C33.896,84 33,83.104 33,82 C33,80.896 33.896,80 35,80" id="Fill-7" fill="#FFBE00"></path>
                                <path d="M35,0 C36.104,0 37,0.896 37,2 C37,3.104 36.104,4 35,4 C33.896,4 33,3.104 33,2 C33,0.896 33.896,0 35,0" id="Fill-9" fill="#FFBE00"></path>
                                <path d="M2,20 C3.104,20 4,20.896 4,22 C4,23.104 3.104,24 2,24 C0.896,24 0,23.104 0,22 C0,20.896 0.896,20 2,20" id="Fill-12" fill="#FFBE00"></path>
                                <polygon id="Stroke-14" stroke="#FFBE00" points="69 22 69 62 35 82 2 62 2 22 35 2"></polygon>
                            </g>
                            <g id="Page-1" transform="translate(21.000000, 30.000000)" stroke-width="2" stroke="#FFBE00">
                                <polygon id="Stroke-1" points="0 24 30 24 30 0 0 0"></polygon>
                                <polygon id="Stroke-3" points="12 16 20 12 12 8"></polygon>
                            </g>
                        </g>
                    </g>
                </g>
            </g>
        </g>
    </g>
</svg>