<?xml version="1.0" encoding="UTF-8"?>
<svg width="30px" height="34px" viewBox="0 0 30 34" version="1.1" xmlns="http://www.w3.org/2000/svg" xmlns:xlink="http://www.w3.org/1999/xlink">
    <!-- Generator: Sketch 46.1 (44463) - http://www.bohemiancoding.com/sketch -->
    <title>backpack-58</title>
    <desc>Created with Sketch.</desc>
    <defs></defs>
    <g id="Hackathon" stroke="none" stroke-width="1" fill="none" fill-rule="evenodd">
        <g id="04_Hackathon-Return" transform="translate(-1156.000000, -2177.000000)" stroke="#63CECA" stroke-width="2">
            <g id="6" transform="translate(35.000000, 1840.000000)">
                <g id="Group-8" transform="translate(0.000000, 300.000000)">
                    <g id="Group-6-Copy-4" transform="translate(1122.000000, 36.000000)">
                        <g id="backpack-58" transform="translate(0.000000, 2.000000)">
                            <polyline id="Shape" points="9 4.01977539 9 0 19 0 19 4.01977539"></polyline>
                            <polyline id="Shape" stroke-linecap="square" points="26 27 26 32 2 32 2 27"></polyline>
                            <path d="M25,23 L3,23 C1.343,23 0,21.657 0,20 L0,7 L28,7 L28,20 C28,21.657 26.657,23 25,23 Z" id="Shape" stroke-linecap="square"></path>
                            <path d="M6,19 L10,19" id="Shape" stroke-linecap="square"></path>
                            <path d="M8,19 L8,27" id="Shape" stroke-linecap="square"></path>
                            <path d="M18,19 L22,19" id="Shape" stroke-linecap="square"></path>
                            <path d="M20,19 L20,27" id="Shape" stroke-linecap="square"></path>
                            <rect id="Rectangle-path" stroke-linecap="square" x="9" y="11" width="10" height="4"></rect>
                        </g>
                    </g>
                </g>
            </g>
        </g>
    </g>
</svg>