<?xml version="1.0" encoding="UTF-8"?>
<svg width="23px" height="32px" viewBox="0 0 23 32" version="1.1" xmlns="http://www.w3.org/2000/svg" xmlns:xlink="http://www.w3.org/1999/xlink">
    <!-- Generator: Sketch 46.1 (44463) - http://www.bohemiancoding.com/sketch -->
    <title>Page 1</title>
    <desc>Created with Sketch.</desc>
    <defs></defs>
    <g id="Hackathon" stroke="none" stroke-width="1" fill="none" fill-rule="evenodd">
        <g id="04_Hackathon-Return" transform="translate(-580.000000, -2180.000000)" stroke="#63CECA" stroke-width="2">
            <g id="6" transform="translate(35.000000, 1840.000000)">
                <g id="Group-8" transform="translate(0.000000, 300.000000)">
                    <g id="Group-6-Copy-2" transform="translate(546.000000, 36.000000)">
                        <g id="Page-1" transform="translate(0.000000, 5.000000)">
                            <path d="M17.1537,23 C17.1537,26.865 14.0187,30 10.1537,30 C6.2877,30 3.1537,26.865 3.1537,23 C3.1537,19.135 6.2877,16 10.1537,16 C14.0187,16 17.1537,19.135 17.1537,23 Z" id="Stroke-1"></path>
                            <path d="M7.1537,23 C7.1537,21.346 8.4997,20 10.1537,20" id="Stroke-3"></path>
                            <polyline id="Stroke-5" points="11.1537 12 20.1537 9 19.1537 4 19.1537 0 1.1537 0 1.1537 4 0.1537 9 9.1537 12"></polyline>
                            <path d="M7.1537,3 L7.1537,7" id="Stroke-7"></path>
                            <path d="M13.1537,3 L13.1537,7" id="Stroke-9"></path>
                        </g>
                    </g>
                </g>
            </g>
        </g>
    </g>
</svg>