<?xml version="1.0" encoding="UTF-8"?>
<svg width="28px" height="30px" viewBox="0 0 28 30" version="1.1" xmlns="http://www.w3.org/2000/svg" xmlns:xlink="http://www.w3.org/1999/xlink">
    <!-- Generator: Sketch 46.2 (44496) - http://www.bohemiancoding.com/sketch -->
    <title>Polygon</title>
    <desc>Created with Sketch.</desc>
    <defs></defs>
    <g id="Visual-1" stroke="none" stroke-width="1" fill="none" fill-rule="evenodd">
        <g id="3.-Icon" transform="translate(-618.000000, -953.000000)" fill-rule="nonzero" fill="#E37222">
            <g id="Game-Rank" transform="translate(618.000000, 953.000000)">
                <g id="1">
                    <path d="M14,1 L1.87564435,8 L1.87564435,22 L14,29 L26.1243557,22 L26.1243557,8 L14,1 Z M14.5,0.133974596 L26.6243557,7.1339746 C26.9337567,7.31260739 27.1243557,7.64273441 27.1243557,8 L27.1243557,22 C27.1243557,22.3572656 26.9337567,22.6873926 26.6243557,22.8660254 L14.5,29.8660254 C14.1905989,30.0446582 13.8094011,30.0446582 13.5,29.8660254 L1.37564435,22.8660254 C1.06624327,22.6873926 0.875644347,22.3572656 0.875644347,22 L0.875644347,8 C0.875644347,7.64273441 1.06624327,7.31260739 1.37564435,7.1339746 L13.5,0.133974596 C13.8094011,-0.0446581987 14.1905989,-0.0446581987 14.5,0.133974596 Z M9.19208696,14.5383696 C8.93713555,14.4322829 8.64445633,14.5529616 8.53836963,14.807913 C8.43228293,15.0628645 8.55296162,15.3555437 8.80791304,15.4616304 L13.7481596,17.5172944 C13.8698725,17.5679398 14.0066618,17.5684681 14.1287622,17.5187643 L19.1786279,15.4631003 C19.4343911,15.358986 19.5573269,15.0672476 19.4532126,14.8114844 C19.3490983,14.5557212 19.0573599,14.4327854 18.8015967,14.5368997 L13.9423347,16.5149741 L9.19208696,14.5383696 Z" id="Polygon"></path>
                </g>
            </g>
        </g>
    </g>
</svg>