<?xml version="1.0" encoding="UTF-8"?>
<svg width="28px" height="30px" viewBox="0 0 28 30" version="1.1" xmlns="http://www.w3.org/2000/svg" xmlns:xlink="http://www.w3.org/1999/xlink">
    <!-- Generator: Sketch 46.2 (44496) - http://www.bohemiancoding.com/sketch -->
    <title>Polygon</title>
    <desc>Created with Sketch.</desc>
    <defs></defs>
    <g id="Visual-1" stroke="none" stroke-width="1" fill="none" fill-rule="evenodd">
        <g id="3.-Icon" transform="translate(-861.000000, -953.000000)" fill-rule="nonzero" fill="#FFBE00">
            <g id="Game-Rank" transform="translate(618.000000, 953.000000)">
                <g id="3" transform="translate(244.000000, 1.000000)">
                    <g id="Polygon">
                        <path d="M13,0 L0.875644347,7 L0.875644347,21 L13,28 L25.1243557,21 L25.1243557,7 L13,0 Z M13.5,-0.866025404 L25.6243557,6.1339746 C25.9337567,6.31260739 26.1243557,6.64273441 26.1243557,7 L26.1243557,21 C26.1243557,21.3572656 25.9337567,21.6873926 25.6243557,21.8660254 L13.5,28.8660254 C13.1905989,29.0446582 12.8094011,29.0446582 12.5,28.8660254 L0.375644347,21.8660254 C0.0662432703,21.6873926 -0.124355653,21.3572656 -0.124355653,21 L-0.124355653,7 C-0.124355653,6.64273441 0.0662432703,6.31260739 0.375644347,6.1339746 L12.5,-0.866025404 C12.8094011,-1.0446582 13.1905989,-1.0446582 13.5,-0.866025404 Z M9.54956875,18.7491112 L12.7673294,17.0574343 C12.9129914,16.9808552 13.0870086,16.9808552 13.2326706,17.0574343 L16.4504313,18.7491112 L15.8358936,15.166082 C15.8080747,15.003885 15.8618489,14.8383849 15.979692,14.7235163 L18.582915,12.1860009 L14.9853492,11.663244 C14.8224941,11.6395798 14.6817114,11.5372951 14.6088803,11.3897234 L13,8.12977573 L11.3911197,11.3897234 C11.3182886,11.5372951 11.1775059,11.6395798 11.0146508,11.663244 L7.41708496,12.1860009 L10.020308,14.7235163 C10.1381511,14.8383849 10.1919253,15.003885 10.1641064,15.166082 L9.54956875,18.7491112 Z M9.1181738,20.1056847 C8.75136011,20.29853 8.32264389,19.9870495 8.39269907,19.5785964 L9.13406191,15.2561194 L5.99359854,12.1949242 C5.69684003,11.9056562 5.86059505,11.40167 6.27070523,11.3420775 L10.6107189,10.7114366 L12.551632,6.77871714 C12.7350388,6.40709429 13.2649612,6.40709429 13.448368,6.77871714 L15.3892811,10.7114366 L19.7292948,11.3420775 C20.1394049,11.40167 20.30316,11.9056562 20.0064015,12.1949242 L16.8659381,15.2561194 L17.6073009,19.5785964 C17.6773561,19.9870495 17.2486399,20.29853 16.8818262,20.1056847 L13,18.0648879 L9.1181738,20.1056847 Z"></path>
                    </g>
                </g>
            </g>
        </g>
    </g>
</svg>