<?xml version="1.0" encoding="UTF-8"?>
<svg width="240px" height="79px" viewBox="0 0 240 79" version="1.1" xmlns="http://www.w3.org/2000/svg" xmlns:xlink="http://www.w3.org/1999/xlink">
    <!-- Generator: Sketch 46.2 (44496) - http://www.bohemiancoding.com/sketch -->
    <title>Group 13</title>
    <desc>Created with Sketch.</desc>
    <defs>
        <rect id="path-1" x="0" y="0" width="240" height="100"></rect>
        <rect id="path-3" x="0" y="0" width="144" height="100"></rect>
        <linearGradient x1="50%" y1="0%" x2="50%" y2="100%" id="linearGradient-5">
            <stop stop-color="#E37222" stop-opacity="0.1" offset="0%"></stop>
            <stop stop-color="#E37222" stop-opacity="0" offset="100%"></stop>
        </linearGradient>
        <rect id="path-6" x="0" y="0" width="240" height="100"></rect>
        <rect id="path-8" x="0" y="0" width="144" height="100"></rect>
        <linearGradient x1="50%" y1="0%" x2="50%" y2="100%" id="linearGradient-10">
            <stop stop-color="#FFBE00" offset="0%"></stop>
            <stop stop-color="#FFBE00" stop-opacity="0" offset="100%"></stop>
        </linearGradient>
        <rect id="path-11" x="0" y="0" width="240" height="100"></rect>
        <rect id="path-13" x="0" y="0" width="144" height="100"></rect>
        <linearGradient x1="50%" y1="0%" x2="50%" y2="100%" id="linearGradient-15">
            <stop stop-color="#63CECA" offset="0%"></stop>
            <stop stop-color="#63CECA" stop-opacity="0" offset="100%"></stop>
        </linearGradient>
        <rect id="path-16" x="0" y="0" width="240" height="100"></rect>
        <rect id="path-18" x="0" y="0" width="144" height="100"></rect>
        <linearGradient x1="50%" y1="59.7197175%" x2="50%" y2="100%" id="linearGradient-20">
            <stop stop-color="#FF00FF" offset="0%"></stop>
            <stop stop-color="#FF00FF" stop-opacity="0" offset="100%"></stop>
        </linearGradient>
    </defs>
    <g id="Leader" stroke="none" stroke-width="1" fill="none" fill-rule="evenodd">
        <g id="09_LeaderBoard-List-view-(Gobal)-3" transform="translate(-1120.000000, -255.000000)">
            <g id="1" transform="translate(30.000000, 142.000000)">
                <g id="2" transform="translate(1040.000000, 87.000000)">
                    <g id="Group-13" transform="translate(50.000000, 5.000000)">
                        <g id="1">
                            <g id="Group-6">
                                <mask id="mask-2" fill="white">
                                    <use xlink:href="#path-1"></use>
                                </mask>
                                <g id="Rectangle-9"></g>
                                <polygon id="Path-3" stroke="#E37222" opacity="0.600000024" stroke-linecap="round" stroke-linejoin="round" stroke-dasharray="0.7999999821186066,4.00000015894572" mask="url(#mask-2)" points="0.2671875 100.085938 34.0125 76.5921875 43.340625 80.3453125 67.8398841 70.3269321 74.6103928 74.0199368 90.7191696 61.2911266 96.1888777 62.932462 106.867076 53.3837392 120.822658 62.932462 134.104573 40.027795 141.639698 37.2241995 157.187968 21.4548999 179.465501 51.1596874 185.578206 42.9011896 203.883538 51.1596874 226.987027 40.027795 237.660995 45.7280515 260.018903 25.2103008 276.800289 53.3837392 292.526228 40.027795 307.356413 29.5780298 320.187809 40.2124892 358.036876 71.5812 386.768707 45.7280515 397.87839 48.9388082 417.102743 29.5780298 444.329664 65.8005688 460.143381 48.9388082 464.29431 53.3837392 482.020098 29.5780298 511.734404 25.2103008 524.541474 22.5473609 527.003477 22.5473609 527.003477 115.734467 -5.11543414 115.734467 -5.11543414 99.0872116"></polygon>
                            </g>
                            <g id="Group-7">
                                <mask id="mask-4" fill="white">
                                    <use xlink:href="#path-3"></use>
                                </mask>
                                <g id="Rectangle-9-Copy"></g>
                                <polygon id="Path-3-Copy" stroke="#E37222" fill="url(#linearGradient-5)" stroke-linecap="round" stroke-linejoin="round" mask="url(#mask-4)" points="0.2671875 100.085938 34.0125 76.5921875 43.340625 80.3453125 67.8398841 70.3269321 74.6103928 74.0199368 90.7191696 61.2911266 96.1888777 62.932462 106.867076 53.3837392 120.822658 62.932462 134.104573 40.027795 141.639698 37.2241995 157.187968 21.4548999 179.465501 51.1596874 185.578206 42.9011896 203.883538 51.1596874 226.987027 40.027795 237.660995 45.7280515 260.018903 25.2103008 276.800289 53.3837392 292.526228 40.027795 307.356413 29.5780298 320.187809 40.2124892 320.187809 115.734467 -5.11543414 115.734467 -5.11543414 99.0872116"></polygon>
                            </g>
                        </g>
                        <g id="2">
                            <g id="Group-6">
                                <mask id="mask-7" fill="white">
                                    <use xlink:href="#path-6"></use>
                                </mask>
                                <g id="Rectangle-9"></g>
                                <polygon id="Path-3" stroke="#FFBE00" opacity="0.600000024" stroke-linecap="round" stroke-linejoin="round" stroke-dasharray="0.7999999821186066,4.00000015894572" mask="url(#mask-7)" points="0.2671875 100.338281 34.0125 87.5742188 43.340625 70.3269321 67.8398841 76.7882812 74.6103928 71.5812 90.7191696 68.5946834 96.1888777 82.2929687 106.867076 61.6734375 120.822658 67.3671875 134.104573 48.9388082 141.639698 45.7280515 157.187968 32.7851562 179.465501 43.9726562 185.578206 55.6 203.883538 48.9388082 226.987027 59.753125 237.660995 50.9359375 260.018903 42.3140625 276.800289 65.8005688 292.526228 48.9388082 307.356413 55.6 320.187809 61.6734375 358.036876 52.309375 386.768707 55.6 397.87839 43.9726562 417.102743 50.9359375 444.329664 54.5570312 460.143381 63.9945312 464.29431 59.753125 482.020098 48.9388082 511.734404 42.3140625 524.541474 38.903125 527.003477 22.5473609 527.003477 115.734467 -5.11543414 115.734467 -5.11543414 99.0872116"></polygon>
                            </g>
                            <g id="Group-8">
                                <mask id="mask-9" fill="white">
                                    <use xlink:href="#path-8"></use>
                                </mask>
                                <g id="Rectangle-9-Copy"></g>
                                <polygon id="Path-3" stroke="#FFBE00" fill-opacity="0.1" fill="url(#linearGradient-10)" stroke-linecap="round" stroke-linejoin="round" mask="url(#mask-9)" points="0.2671875 100.007031 34.0125 87.5742188 43.340625 70.3269321 67.8398841 76.7882812 74.6103928 71.5812 90.7191696 68.5946834 96.1888777 82.2929687 106.867076 61.6734375 120.822658 67.3671875 134.104573 48.9388082 141.639698 45.7280515 157.187968 32.7851562 179.465501 43.9726562 185.578206 55.6 203.883538 48.9388082 226.987027 59.753125 237.660995 50.9359375 260.018903 42.3140625 276.800289 65.8005688 292.526228 48.9388082 307.356413 55.6 320.187809 61.6734375 358.036876 52.309375 386.768707 55.6 397.87839 43.9726562 417.102743 50.9359375 444.329664 54.5570312 460.143381 63.9945312 464.29431 59.753125 482.020098 48.9388082 511.734404 42.3140625 524.541474 38.903125 527.003477 22.5473609 527.003477 115.734467 -5.11543414 115.734467 -5.11543414 99.0872116"></polygon>
                            </g>
                        </g>
                        <g id="3">
                            <g id="Group-11">
                                <mask id="mask-12" fill="white">
                                    <use xlink:href="#path-11"></use>
                                </mask>
                                <g id="Rectangle-9"></g>
                                <polygon id="Path-3" stroke="#63CECA" opacity="0.600000024" stroke-linecap="round" stroke-linejoin="round" stroke-dasharray="0.7999999821186066,4.00000015894572" mask="url(#mask-12)" points="-0.013671875 99.871875 34.0125 95.8226562 43.340625 91.3578125 67.8398841 88.265625 74.6103928 92.809375 90.7191696 82.2929687 96.1888777 73.0992187 106.867076 82.2929687 120.822658 86.925 134.104573 73.9820312 141.639698 59.753125 157.187968 69.1409139 179.465501 63.9945312 185.578206 69.1409139 203.883538 65.8005688 226.987027 79.8195312 237.660995 72.046875 260.018903 74.9304687 276.800289 86.925 292.526228 91.3578125 307.356413 80.765625 320.187809 73.0992187 358.036876 69.1409139 386.768707 63.9945312 397.87839 68.053125 417.102743 73.9820312 444.329664 70.5414062 460.143381 80.765625 464.29431 76.35625 482.020098 82.2929687 511.734404 73.9820312 524.541474 65.8005688 527.003477 22.5473609 527.003477 115.734467 -5.11543414 115.734467 -5.11543414 99.0872116"></polygon>
                            </g>
                            <g id="Group-12">
                                <mask id="mask-14" fill="white">
                                    <use xlink:href="#path-13"></use>
                                </mask>
                                <g id="Rectangle-9-Copy"></g>
                                <polygon id="Path-3" stroke="#63CECA" fill-opacity="0.1" fill="url(#linearGradient-15)" stroke-linecap="round" stroke-linejoin="round" mask="url(#mask-14)" points="0.378125 99.6820312 34.0125 95.8226562 43.340625 91.3578125 67.8398841 88.265625 74.6103928 92.809375 90.7191696 82.2929687 96.1888777 73.0992187 106.867076 82.2929687 120.822658 86.925 134.104573 73.9820312 141.639698 59.753125 157.187968 69.1409139 179.465501 63.9945312 185.578206 69.1409139 203.883538 65.8005688 226.987027 79.8195312 237.660995 72.046875 260.018903 74.9304687 276.800289 86.925 292.526228 91.3578125 307.356413 80.765625 320.187809 73.0992187 358.036876 69.1409139 386.768707 63.9945312 397.87839 68.053125 417.102743 73.9820312 444.329664 70.5414062 460.143381 80.765625 464.29431 76.35625 482.020098 82.2929687 511.734404 73.9820312 524.541474 65.8005688 527.003477 22.5473609 527.003477 115.734467 -5.11543414 115.734467 -5.11543414 99.0872116"></polygon>
                            </g>
                        </g>
                        <g id="4">
                            <g id="Group-9">
                                <mask id="mask-17" fill="white">
                                    <use xlink:href="#path-16"></use>
                                </mask>
                                <g id="Rectangle-9"></g>
                                <polygon id="Path-3" stroke="#BD00DB" opacity="0.600000024" stroke-linecap="round" stroke-linejoin="round" stroke-dasharray="0.7999999821186066,4.00000015894572" mask="url(#mask-17)" points="-0.013671875 99.871875 33.8039062 98.0648437 43.8726562 95.4570312 68.4 83.3835937 74.6103928 89.0234375 90.7191696 86.925 96.1888777 91.3578125 106.867076 95.4570312 120.822658 98.0648437 134.104573 91.3578125 141.639698 84.734375 157.187968 76.35625 179.465501 83.3835937 185.578206 86.925 203.883538 82.2929687 226.987027 92.50625 237.660995 84.734375 260.018903 95.4570312 276.800289 92.50625 292.526228 96.8304687 307.356413 86.925 320.187809 93.5046875 358.036876 83.3835937 386.768707 94.5648437 397.87839 96.8304687 417.102743 89.0234375 444.329664 93.5046875 460.143381 98.0648437 464.29431 91.3578125 482.020098 95.4570312 511.734404 93.5046875 524.541474 98.0648437 527.003477 22.5473609 527.003477 115.734467 -5.11543414 115.734467 -5.11543414 99.0872116"></polygon>
                            </g>
                            <g id="Group-10">
                                <mask id="mask-19" fill="white">
                                    <use xlink:href="#path-18"></use>
                                </mask>
                                <g id="Rectangle-9-Copy"></g>
                                <polygon id="Path-3" stroke="#BD00DB" fill-opacity="0.1" fill="url(#linearGradient-20)" stroke-linecap="round" stroke-linejoin="round" mask="url(#mask-19)" points="-0.013671875 99.871875 33.8039062 98.0648437 43.8726562 95.4570312 68.4 83.3835937 74.6103928 89.0234375 90.7191696 86.925 96.1888777 91.3578125 106.867076 95.4570312 120.822658 98.0648437 134.104573 91.3578125 141.639698 84.734375 157.187968 76.35625 179.465501 83.3835937 185.578206 86.925 203.883538 82.2929687 226.987027 92.50625 237.660995 84.734375 260.018903 95.4570312 276.800289 92.50625 292.526228 96.8304687 307.356413 86.925 320.187809 93.5046875 358.036876 83.3835937 386.768707 94.5648437 397.87839 96.8304687 417.102743 89.0234375 444.329664 93.5046875 460.143381 98.0648437 464.29431 91.3578125 482.020098 95.4570312 511.734404 93.5046875 524.541474 98.0648437 527.003477 22.5473609 527.003477 115.734467 -5.11543414 115.734467 -5.11543414 99.0872116"></polygon>
                            </g>
                        </g>
                    </g>
                </g>
            </g>
        </g>
    </g>
</svg>