<?xml version="1.0" encoding="UTF-8"?>
<svg width="274px" height="55px" viewBox="0 0 274 55" version="1.1" xmlns="http://www.w3.org/2000/svg" xmlns:xlink="http://www.w3.org/1999/xlink">
    <!-- Generator: Sketch 46.2 (44496) - http://www.bohemiancoding.com/sketch -->
    <title>Group 20</title>
    <desc>Created with Sketch.</desc>
    <defs></defs>
    <g id="Halite" stroke="none" stroke-width="1" fill="none" fill-rule="evenodd">
        <g id="02_Visualizer" transform="translate(-1126.000000, -13.000000)">
            <g id="Header">
                <g id="btn" transform="translate(1126.000000, 13.000000)">
                    <g id="Group-20">
                        <polygon id="Page-1" fill-opacity="0.300000012" fill="#FFBE00" points="20.0005335 0 10 28 20.0005335 55 253.999467 55 264 28 253.999467 0"></polygon>
                        <g id="Group-15" transform="translate(0.000000, 3.000000)">
                            <polyline id="Page-1-Copy-2" stroke="#FFBE00" points="10 2 2 24.5 10 47"></polyline>
                            <path d="M8,47 C8,45.896 8.896,45 10,45 C11.104,45 12,45.896 12,47 C12,48.104 11.104,49 10,49 C8.896,49 8,48.104 8,47" id="Fill-12" fill="#FFBE00"></path>
                            <path d="M0,25 C0,23.896 0.896,23 2,23 C3.104,23 4,23.896 4,25 C4,26.104 3.104,27 2,27 C0.896,27 0,26.104 0,25" id="Fill-12-Copy" fill="#FFBE00"></path>
                            <path d="M8,2 C8,0.896 8.896,0 10,0 C11.104,0 12,0.896 12,2 C12,3.104 11.104,4 10,4 C8.896,4 8,3.104 8,2" id="Fill-12-Copy-2" fill="#FFBE00"></path>
                        </g>
                        <g id="Group-15-Copy" transform="translate(268.000000, 27.500000) scale(-1, 1) translate(-268.000000, -27.500000) translate(262.000000, 3.000000)">
                            <polyline id="Page-1-Copy-2" stroke="#FFBE00" points="10 2 2 24.5 10 47"></polyline>
                            <path d="M8,47 C8,45.896 8.896,45 10,45 C11.104,45 12,45.896 12,47 C12,48.104 11.104,49 10,49 C8.896,49 8,48.104 8,47" id="Fill-12" fill="#FFBE00"></path>
                            <path d="M0,25 C0,23.896 0.896,23 2,23 C3.104,23 4,23.896 4,25 C4,26.104 3.104,27 2,27 C0.896,27 0,26.104 0,25" id="Fill-12-Copy" fill="#FFBE00"></path>
                            <path d="M8,2 C8,0.896 8.896,0 10,0 C11.104,0 12,0.896 12,2 C12,3.104 11.104,4 10,4 C8.896,4 8,3.104 8,2" id="Fill-12-Copy-2" fill="#FFBE00"></path>
                        </g>
                    </g>
                </g>
            </g>
        </g>
    </g>
</svg>